<svg xmlns="http://www.w3.org/2000/svg" fill="none" viewBox="0 0 1498 649">
  <path fill="#000" d="M1258.19 532.862c24.53 57.98 55.31 74.482 90.1 74.482 53.07 0 76.71-33.896 76.71-63.332 0-32.558-22.3-51.736-85.63-59.764-65.12-8.92-123.1-40.14-123.1-116.406 0-62.44 42.82-123.988 125.77-123.988 36.13 0 63.33 17.394 74.04 17.394 12.04 0 20.51-13.38 28.99-13.38 19.62 0 38.8 52.628 38.8 80.726 0 23.638-11.15 33.45-23.19 33.45-14.27 0-20.07-5.352-25.87-15.61-4.46-8.92-10.26-22.3-17.84-31.22-15.16-19.624-45.05-31.666-70.47-31.666-38.8 0-66.45 22.3-66.45 54.412 0 36.126 26.76 47.276 95 59.764 71.8 12.934 122.2 46.83 122.2 113.73 0 70.914-55.3 134.246-148.52 134.246-25.42 0-47.27-5.352-64.22-12.042-16.95-5.352-30.33-11.15-41.48-20.516-10.26-8.474-31.67-35.68-31.67-75.374 0-18.732 4.02-27.652 12.49-27.652 17.4 0 28.1 9.366 34.34 22.746ZM217.408 450.014c0-115.514 90.984-206.498 215.418-206.498 111.054 0 189.104 77.604 189.104 192.226 0 119.528-87.862 212.296-208.282 212.296-112.392 0-196.24-84.74-196.24-198.024Zm216.31 153.87c56.642 0 103.472-48.614 103.472-115.96 0-92.322-53.966-198.47-131.124-198.47-53.966 0-99.904 47.276-99.904 118.636 0 94.552 55.75 195.794 127.556 195.794Z"/>
  <path fill="#000" d="M70.022 307.74H39.248c-9.812 0-22.746-2.676-22.746-16.502 0-4.906.892-9.366 1.784-13.826 3.122-8.474 12.934-10.258 20.516-10.258h30.774c10.258 0 11.15-.446 11.15-12.488v-2.23c0-52.182-15.164-92.322-15.164-132.016 0-75.82 61.102-117.744 109.27-117.744 45.046 0 67.346 20.962 67.346 47.722 0 25.868-14.718 44.154-35.68 44.154-31.22 0-35.68-41.032-64.67-41.032-12.488 0-20.07 18.732-20.07 32.112 0 36.126 36.572 25.868 37.464 154.316v12.934c.446 13.38 1.784 13.826 12.934 13.826h45.046c18.732 0 27.206 2.23 27.206 15.61 0 4.46-.892 11.596-1.784 14.718-3.122 8.92-10.258 10.704-24.53 10.704h-42.37c-13.826 0-14.718 1.784-14.718 15.61v49.952c0 103.918 3.568 185.982 10.258 206.052 4.014 12.042 14.272 16.948 23.192 17.84 15.164 1.338 26.76-5.352 35.68-4.46 8.474.892 13.826 6.69 13.826 14.718 0 20.962-39.248 36.126-130.232 36.126C32.558 643.578 0 633.766 0 613.25c0-9.366 4.906-16.502 12.488-17.394 8.474-.892 17.394 5.798 33.004 4.906 16.056-.892 18.732-9.366 23.192-21.408 9.366-26.314 15.61-89.646 15.61-201.146v-55.304c0-13.38-.892-15.164-14.272-15.164Z"/>
  <path fill="#000" fill-rule="evenodd" d="M919.166 0c12.042 0 15.61 6.2443 15.61 20.0703 0 10.9588-.393 22.4586-.919 37.8138l-.001.0267c-1.057 30.8892-2.648 77.3792-2.648 166.4272v141.828c0 9.812.446 18.286 8.028 18.286 6.245 0 24.531-14.273 37.91-24.976l35.684-29.436c3.8-3.312 7.18-6.228 10.18-8.817 18.84-16.243 22.82-19.677 22.82-27.755 0-3.942-3.01-4.443-5.66-4.882l-.14-.024c-.96-.241-2.2-.353-3.54-.474-1.14-.103-2.37-.214-3.59-.418-8.48-.892-14.28-4.46-14.28-13.38 0-16.056 14.72-26.314 77.61-26.314 58.42 0 85.63 8.028 85.63 29.882 0 10.258-9.37 14.718-19.18 15.164-3.92.231-8.07-.373-12.04-.948-3.7-.538-7.24-1.051-10.26-.836-15.61.446-29.43 8.028-66.45 40.586l-49.51 42.816c-.16.162-.32.322-.48.48-.16.162-.32.32-.48.477-9.76 9.735-9.82 9.795 1.85 25.357l92.33 122.204c25.42 33.896 42.81 53.52 54.85 64.67 7.14 5.798 13.38 10.704 21.86 11.596 20.96.892 29.43 3.568 29.43 20.07 0 12.488-7.58 17.84-32.11 17.84h-61.55c-.9 0-1.79.001-2.65.001l-2.07.003c-20.32.027-29.64.04-35.86-5.356-3.43-2.781-8.9-10.284-17.86-22.557l-.02-.029c-9.71-13.31-23.51-32.223-43.22-56.802l-72.702-91.43c-1.026-1.232-1.97-2.375-2.844-3.434-6.721-8.14-9.316-11.284-13.658-11.284-5.798 0-8.92 4.906-8.92 20.516 0 71.36 3.122 102.58 8.474 117.744 3.568 11.15 9.812 13.826 18.286 14.718 4.986.217 8.604-.199 11.926-.581 3.511-.404 6.696-.769 10.82-.311 6.244.892 13.38 5.799 13.38 13.826 0 20.962-23.639 31.666-112.392 31.666H782.5c20.938-10.363 27.726-39.422 6.5-42.173 14.645 1.06 40.705-6.245 45.872-20.713 9.812-24.531 11.596-90.093 11.596-207.836v-138.26c0-138.26-2.23-165.466-20.962-167.25-9.061-1.2944-16.019.2669-22.094 1.6299-4.39.9849-8.319 1.8663-12.248 1.4922-8.474-.892-14.718-7.1363-14.718-16.9483 0-11.5958 9.366-16.502 29.436-25.4219C838.44 13.3799 900.434 0 919.166 0Z" clip-rule="evenodd"/>
  <path fill="#000" fill-rule="evenodd" d="M726.772 0c10.704 0 13.38 5.3522 13.38 18.2861 0 12.677-.418 26.8708-.968 45.537-1.057 35.8408-2.599 88.1699-2.599 177.9089v125.772c0 114.176.445 196.686 8.027 217.202 6.952 19.31 27.642 16.524 44.388 17.145-16.833 1.326-24.999 29.734-6.5 42.173-15.172 0-25.022-.088-35.932-.187-13.539-.122-28.709-.259-57.706-.259-84.739 0-107.931-7.582-107.931-27.206 0-8.92 4.014-15.61 12.488-16.502 3.791-.223 7.805.223 11.819.669 4.014.446 8.028.892 11.819.669 8.028-.446 18.731-6.244 23.637-17.84 9.812-25.868 12.935-90.984 12.935-210.066V240.394c0-142.274-3.123-170.818-23.639-172.602-8.809-.7772-14.909.7035-20.224 1.9935-3.833.9305-7.258 1.7617-10.995 1.5749-9.366-.4461-15.61-7.5824-15.61-16.9483 0-12.934 8.474-17.84 28.544-27.206C642.479 12.4882 706.702.0001 726.772 0Z" clip-rule="evenodd"/>
  <path fill="#000" fill-rule="evenodd" d="M789 601.851c21.226 2.751 14.438 31.81-6.5 42.173-18.499-12.439-10.333-40.847 6.5-42.173-1.622-.21 1.629.061 0 0Z" clip-rule="evenodd"/>
</svg>
