<svg width="2995" height="1296" viewBox="0 0 2995 1296" fill="none" xmlns="http://www.w3.org/2000/svg">
<path d="M2516.25 1065.67C2565.31 1181.62 2626.85 1214.62 2696.42 1214.62C2802.57 1214.62 2849.84 1146.83 2849.84 1087.97C2849.84 1022.85 2805.24 984.499 2678.58 968.444C2548.36 950.605 2432.41 888.169 2432.41 735.645C2432.41 610.772 2518.03 487.682 2683.94 487.682C2756.18 487.682 2810.59 522.468 2832 522.468C2856.08 522.468 2873.03 495.71 2889.98 495.71C2929.22 495.71 2967.58 600.96 2967.58 657.153C2967.58 704.427 2945.28 724.049 2921.19 724.049C2892.65 724.049 2881.06 713.346 2869.46 692.831C2860.54 674.992 2848.95 648.234 2833.78 630.395C2803.46 591.149 2743.7 567.066 2692.86 567.066C2615.26 567.066 2559.95 611.664 2559.95 675.884C2559.95 748.132 2613.47 770.431 2749.94 795.406C2893.54 821.272 2994.33 889.061 2994.33 1022.85C2994.33 1164.67 2883.73 1291.33 2697.31 1291.33C2646.47 1291.33 2602.77 1280.63 2568.87 1267.25C2534.98 1256.54 2508.22 1244.95 2485.92 1226.22C2465.41 1209.27 2422.59 1154.86 2422.59 1075.48C2422.59 1038.02 2430.62 1020.18 2447.57 1020.18C2482.35 1020.18 2503.76 1038.91 2516.25 1065.67Z" fill="#444444"/>
<path d="M434.791 899.973C434.791 668.958 616.749 487 865.604 487C1087.7 487 1243.79 642.199 1243.79 871.431C1243.79 1110.47 1068.08 1296 827.25 1296C602.478 1296 434.791 1126.53 434.791 899.973ZM867.388 1207.7C980.666 1207.7 1074.32 1110.47 1074.32 975.789C1074.32 791.155 966.395 578.871 812.087 578.871C704.161 578.871 612.289 673.417 612.289 816.13C612.289 1005.22 723.783 1207.7 867.388 1207.7Z" fill="#444444"/>
<path d="M140.036 615.443H78.4918C58.8688 615.443 33.0022 610.092 33.0022 582.441C33.0022 572.63 34.7861 563.71 36.57 554.791C42.8137 537.844 62.4366 534.276 77.5998 534.276H139.145C159.659 534.276 161.443 533.384 161.443 509.301V504.841C161.443 400.483 131.117 320.207 131.117 240.823C131.117 89.1916 253.314 5.34814 349.645 5.34814C439.732 5.34814 484.33 47.2698 484.33 100.787C484.33 152.52 454.896 189.09 412.974 189.09C350.537 189.09 341.618 107.031 283.641 107.031C258.666 107.031 243.503 144.493 243.503 171.251C243.503 243.499 316.643 222.984 318.427 479.867V505.733C319.319 532.492 321.995 533.384 344.294 533.384H434.381C471.843 533.384 488.79 537.844 488.79 564.602C488.79 573.522 487.006 587.793 485.222 594.036C478.978 611.876 464.707 615.443 436.165 615.443H351.429C323.779 615.443 321.995 619.011 321.995 646.662V746.56C321.995 954.385 329.13 1118.5 342.51 1158.64C350.537 1182.72 371.052 1192.54 388.891 1194.32C419.218 1197 442.408 1183.62 460.247 1185.4C477.194 1187.18 487.898 1198.78 487.898 1214.84C487.898 1256.76 409.406 1287.08 227.448 1287.08C65.1125 1287.08 0 1267.46 0 1226.43C0 1207.7 9.81147 1193.43 24.9747 1191.64C41.9217 1189.86 59.7608 1203.24 90.9791 1201.46C123.089 1199.67 128.441 1182.72 137.361 1158.64C156.092 1106.02 168.579 979.36 168.579 756.372V645.77C168.579 619.011 166.795 615.443 140.036 615.443Z" fill="#444444"/>
<path d="M1481.16 36.5392C1481.16 10.6947 1475.81 0 1454.42 0C1414.32 0.000151743 1285.99 24.9538 1224.49 54.3629C1184.39 73.078 1167.46 82.8813 1167.46 108.726C1167.46 127.441 1179.93 141.7 1198.65 142.592C1206.11 142.965 1212.96 141.304 1220.61 139.445L1220.62 139.444C1231.24 136.867 1243.43 133.908 1261.03 135.461C1302.03 139.026 1308.27 196.063 1308.27 480.352V745.929C1308.27 983.877 1302.03 1113.99 1282.42 1165.68C1272.62 1188.85 1251.23 1200.44 1235.19 1201.33C1219.36 1202.26 1203.77 1197.73 1187.95 1198.66C1171.02 1200.44 1163 1213.81 1163 1231.63C1163 1270.84 1209.34 1285.99 1378.67 1285.99C1436.61 1285.99 1466.92 1286.27 1493.97 1286.51C1583.38 1287.32 1672.8 1286.88 1762.22 1286.88C1939.56 1286.88 1986.8 1265.5 1986.8 1223.61C1986.8 1207.57 1972.54 1197.77 1960.06 1195.98C1951.82 1195.07 1945.46 1195.8 1938.44 1196.6L1938.43 1196.6C1931.8 1197.37 1924.57 1198.2 1914.61 1197.76C1897.68 1195.98 1885.2 1190.63 1878.07 1168.35C1867.38 1138.05 1861.14 1075.67 1861.14 933.08C1861.14 901.888 1867.38 892.085 1878.96 892.085C1887.64 892.086 1892.82 898.366 1906.25 914.633C1908 916.749 1909.89 919.033 1911.94 921.494L2057.2 1104.19C2096.57 1153.28 2124.14 1191.07 2143.55 1217.66L2143.57 1217.69L2143.62 1217.75C2161.51 1242.27 2172.45 1257.26 2179.3 1262.82C2191.74 1273.6 2210.35 1273.58 2250.95 1273.52C2251.75 1273.52 2252.57 1273.52 2253.4 1273.52L2255.08 1273.52C2256.82 1273.52 2258.59 1273.52 2260.39 1273.52H2383.38C2432.39 1273.52 2447.54 1262.82 2447.54 1237.87C2447.54 1204.89 2430.61 1199.55 2388.73 1197.76C2371.79 1195.98 2359.32 1186.18 2345.06 1174.59C2320.99 1152.31 2286.24 1113.1 2235.44 1045.37L2050.96 801.183C2027.64 770.087 2027.76 769.967 2047.27 750.514C2047.58 750.202 2047.9 749.885 2048.22 749.562L2048.86 748.927L2049.18 748.602L2148.1 663.048C2222.07 597.992 2249.7 582.841 2280.89 581.95C2286.92 581.519 2293.99 582.545 2301.4 583.62C2309.32 584.77 2317.62 585.976 2325.45 585.515C2345.06 584.624 2363.77 575.711 2363.77 555.214C2363.77 511.546 2309.41 495.503 2192.66 495.503C2067.01 495.503 2037.6 516.001 2037.6 548.084C2037.6 565.908 2049.18 573.037 2066.11 574.82C2068.56 575.227 2071.01 575.449 2073.29 575.655C2075.98 575.898 2078.44 576.121 2080.37 576.603L2080.66 576.65C2085.94 577.528 2091.96 578.528 2091.96 586.405C2091.96 602.546 2084 609.408 2046.36 641.865C2040.36 647.039 2033.61 652.866 2026.01 659.483L1954.72 718.301C1927.98 739.689 1891.44 768.208 1878.96 768.209C1863.81 768.209 1862.92 751.276 1862.92 731.67V448.27C1862.92 270.337 1866.1 177.442 1868.21 115.72V115.718L1868.22 115.663C1869.27 84.9806 1870.05 62.002 1870.05 40.1043C1870.05 12.4773 1862.92 0 1838.86 0C1801.43 5.80756e-05 1677.55 26.7357 1612.5 57.0363C1572.39 74.86 1553.68 84.6634 1553.68 107.834C1553.68 127.44 1566.15 139.918 1583.09 141.7C1590.94 142.448 1598.79 140.686 1607.56 138.718C1619.7 135.995 1633.6 132.875 1651.71 135.461C1689.14 139.026 1693.59 193.389 1693.59 469.659V745.929C1693.59 1168.35 1695.5 1168.35 1583.09 1168.35C1470.67 1168.35 1474.03 1168.35 1474.03 734.343V483.028C1474.03 303.712 1477.11 199.148 1479.22 127.531L1479.22 127.473C1480.32 90.203 1481.16 61.857 1481.16 36.5392Z" fill="#444444"/>
</svg>
