<svg xmlns="http://www.w3.org/2000/svg" fill="none" viewBox="0 0 2995 2053">
  <path fill="#444" d="M2516.25 1065.67c49.06 115.95 110.6 148.95 180.17 148.95 106.15 0 153.42-67.78 153.42-126.65 0-65.12-44.6-103.47-171.26-119.525-130.22-17.839-246.17-80.276-246.17-232.8 0-124.873 85.62-247.962 251.53-247.962 72.24 0 126.65 34.786 148.06 34.786 24.08 0 41.03-26.759 57.98-26.759 39.24 0 77.6 105.251 77.6 161.444 0 47.273-22.3 66.896-46.39 66.896-28.54 0-40.13-10.703-51.73-31.218-8.92-17.839-20.51-44.598-35.68-62.437-30.32-39.246-90.08-63.329-140.92-63.329-77.6 0-132.91 44.598-132.91 108.819 0 72.248 53.52 94.546 189.99 119.521 143.6 25.867 244.39 93.655 244.39 227.444 0 141.82-110.6 268.48-297.02 268.48-50.84 0-94.54-10.7-128.44-24.08-33.89-10.7-60.65-22.3-82.95-41.03-20.51-16.95-63.33-71.36-63.33-150.74 0-37.46 8.03-55.3 24.98-55.3 34.78 0 56.19 18.73 68.68 45.49ZM434.791 899.973c0-231.016 181.958-412.974 430.813-412.974 222.096 0 378.186 155.2 378.186 384.431 0 239.04-175.71 424.57-416.54 424.57-224.772 0-392.459-169.47-392.459-396.027ZM867.388 1207.7c113.278 0 206.932-97.23 206.932-231.911 0-184.634-107.925-396.919-262.233-396.919-107.926 0-199.798 94.547-199.798 237.259 0 189.091 111.494 391.571 255.099 391.571Z"/>
  <path fill="#444" d="M140.036 615.444H78.492c-19.623 0-45.49-5.352-45.49-33.002 0-9.812 1.784-18.731 3.568-27.651 6.244-16.947 25.867-20.515 41.03-20.515h61.545c20.514 0 22.298-.892 22.298-24.974v-4.46c0-104.359-30.326-184.634-30.326-264.018 0-151.632 122.197-235.475 218.528-235.475 90.087 0 134.685 41.921 134.685 95.438 0 51.734-29.434 88.304-71.356 88.304-62.437 0-71.356-82.06-129.333-82.06-24.975 0-40.138 37.462-40.138 64.221 0 72.248 73.14 51.733 74.924 308.615v25.867c.892 26.758 3.568 27.65 25.867 27.65h90.087c37.462 0 54.409 4.46 54.409 31.219 0 8.919-1.784 23.19-3.568 29.434-6.244 17.839-20.515 21.407-49.057 21.407h-84.736c-27.65 0-29.434 3.568-29.434 31.218v99.899c0 207.825 7.135 371.939 20.515 412.079 8.027 24.09 28.542 33.9 46.381 35.68 30.327 2.68 53.517-10.7 71.356-8.92 16.947 1.79 27.651 13.38 27.651 29.44 0 41.92-78.492 72.24-260.45 72.24C65.113 1287.08 0 1267.46 0 1226.43c0-18.73 9.811-33 24.975-34.78 16.947-1.79 34.786 11.59 66.004 9.81 32.11-1.79 37.462-18.73 46.382-42.82 18.731-52.62 31.218-179.28 31.218-402.268V645.77c0-26.758-1.784-30.326-28.543-30.326ZM1481.16 36.54c0-25.845-5.35-36.54-26.74-36.54-40.1 0-168.43 24.954-229.93 54.363-40.1 18.715-57.03 28.518-57.03 54.363 0 18.715 12.47 32.974 31.19 33.866 7.46.373 14.31-1.288 21.96-3.147l.01-.001c10.62-2.577 22.81-5.536 40.41-3.983 41 3.565 47.24 60.602 47.24 344.891v265.577c0 237.948-6.24 368.061-25.85 419.751-9.8 23.17-31.19 34.76-47.23 35.65-15.83.93-31.42-3.6-47.24-2.67-16.93 1.78-24.95 15.15-24.95 32.97 0 39.21 46.34 54.36 215.67 54.36 57.94 0 88.25.28 115.3.52 89.41.81 178.83.37 268.25.37 177.34 0 224.58-21.38 224.58-63.27 0-16.04-14.26-25.84-26.74-27.63-8.24-.91-14.6-.18-21.62.62h-.01c-6.63.77-13.86 1.6-23.82 1.16-16.93-1.78-29.41-7.13-36.54-29.41-10.69-30.3-16.93-92.68-16.93-235.27 0-31.192 6.24-40.995 17.82-40.995 8.68.001 13.86 6.281 27.29 22.548 1.75 2.116 3.64 4.4 5.69 6.861l145.26 182.696c39.37 49.09 66.94 86.88 86.35 113.47l.02.03.05.06c17.89 24.52 28.83 39.51 35.68 45.07 12.44 10.78 31.05 10.76 71.65 10.7h132.43c49.01 0 64.16-10.7 64.16-35.65 0-32.98-16.93-38.32-58.81-40.11-16.94-1.78-29.41-11.58-43.67-23.17-24.07-22.28-58.82-61.49-109.62-129.22l-184.48-244.187c-23.32-31.096-23.2-31.216-3.69-50.669.31-.312.63-.629.95-.952l.64-.635.32-.325 98.92-85.554c73.97-65.056 101.6-80.207 132.79-81.098 6.03-.431 13.1.595 20.51 1.67 7.92 1.15 16.22 2.356 24.05 1.895 19.61-.891 38.32-9.804 38.32-30.301 0-43.668-54.36-59.711-171.11-59.711-125.65 0-155.06 20.498-155.06 52.581 0 17.824 11.58 24.953 28.51 26.736 2.45.407 4.9.629 7.18.835 2.69.243 5.15.466 7.08.948l.29.047c5.28.878 11.3 1.878 11.3 9.755 0 16.141-7.96 23.003-45.6 55.46-6 5.174-12.75 11.001-20.35 17.618l-71.29 58.818c-26.74 21.388-63.28 49.907-75.76 49.908-15.15 0-16.04-16.933-16.04-36.539v-283.4c0-177.933 3.18-270.828 5.29-332.55v-.002l.01-.055c1.05-30.682 1.83-53.661 1.83-75.559 0-27.627-7.13-40.104-31.19-40.104-37.43 0-161.31 26.736-226.36 57.036-40.11 17.824-58.82 27.627-58.82 50.798 0 19.606 12.47 32.084 29.41 33.866 7.85.748 15.7-1.014 24.47-2.982 12.14-2.723 26.04-5.843 44.15-3.257 37.43 3.565 41.88 57.928 41.88 334.198v276.27c0 422.421 1.91 422.421-110.5 422.421-112.42 0-109.06 0-109.06-434.007V483.028c0-179.316 3.08-283.88 5.19-355.497v-.058c1.1-37.27 1.94-65.616 1.94-90.934ZM24.369 1803.25c0-82.53 66.933-142.64 130.942-142.64 28.593 0 53.287 13.65 68.558 25.99 7.148 5.85 8.773 8.13 11.697 8.13 2.924 0 4.224-.98 4.224-6.83v-42.24c0-80.25 0-114.37-3.899-128.01-1.625-5.53-6.173-8.13-11.047-8.13-6.174 0-11.372 5.2-21.12 5.2-6.498 0-10.722-4.55-10.722-11.05 0-6.82 5.523-10.72 21.119-15.59 18.521-5.85 57.836-14.3 67.908-14.3 4.224 0 6.499 3.9 6.499 12.67 0 24.7-4.549 55.57-4.549 161.49v94.23c0 83.17.975 133.21.975 148.48 0 9.75 4.549 21.45 14.296 21.45 11.047 0 11.047-6.83 20.47-6.83 6.823 0 9.748 4.55 9.748 9.75 0 9.42-14.947 17.87-45.814 26-14.621 3.89-27.943 8.44-36.391 8.44-6.498 0-8.773-1.95-8.773-13.97 0-7.8-.325-13.32-.325-22.09 0-12.67-2.924-20.15-8.123-20.15-4.873 0-7.148 6.5-18.195 18.85-18.845 21.44-42.889 34.44-72.457 34.44-72.782 0-115.021-64.01-115.021-143.29Zm135.816 116.97c45.164 0 79.28-69.53 79.28-132.89v-3.25c0-53.94-25.344-101.37-83.179-101.37-43.214 0-83.18 37.36-83.18 106.89 0 70.84 35.092 130.62 87.079 130.62Zm211.324-364.88c0-21.77 15.921-35.42 34.441-35.42 18.521 0 33.792 13.65 33.792 35.42 0 21.44-15.271 35.41-33.792 35.41-18.52 0-34.441-13.97-34.441-35.41Zm3.249 252.78v-22.09c0-77.01-.975-81.88-15.596-81.88-11.372 0-16.246 4.55-22.744 4.55-6.499 0-11.047-4.55-11.047-11.05 0-8.12 6.498-10.72 21.444-17.22 18.845-8.12 58.161-16.25 68.233-16.25 6.823 0 7.798 4.23 7.798 13v126.72c0 37.69 1.3 88.05 6.823 103 2.925 8.12 7.474 9.75 13.972 9.75 7.798 0 10.722-2.28 16.896-2.28 4.549 0 9.747 3.25 9.747 8.45 0 11.7-11.372 20.47-76.031 20.47-58.485 0-71.482-5.2-71.482-17.22 0-5.52 2.275-10.4 8.448-10.4 5.849 0 11.372 2.6 16.896 2.6 6.173 0 14.621-4.22 18.195-12.67 7.798-18.85 8.448-66.93 8.448-97.48Zm137.882 0v-22.09c0-60.76-4.223-81.88-18.845-81.88-11.372 0-12.997 4.55-19.495 4.55-6.498 0-11.047-4.55-11.047-11.05 0-8.12 6.498-10.72 21.444-17.22 18.846-8.12 51.013-16.25 61.085-16.25 6.823 0 7.148 4.23 7.798 13 .65 9.42 1.3 26.32 1.3 38.99 0 15.92 0 20.8 3.249 20.8 2.274 0 8.448-15.6 12.347-23.07 15.596-30.55 35.091-50.04 63.034-50.04 23.394 0 33.792 22.74 33.792 40.61 0 14.95-12.347 32.5-27.293 32.5-21.445 0-23.395-20.8-37.041-20.8-3.899 0-5.199 1.3-6.499 2.93-17.87 21.77-36.715 65.63-36.715 97.8 0 37.69 3.249 75.05 8.123 90 2.599 8.12 7.148 12.02 13.646 12.02 7.798 0 17.221-5.52 23.394-5.52 4.549 0 9.748 3.25 9.748 8.45 0 11.69-14.621 21.44-79.28 21.44-58.486 0-71.482-5.2-71.482-17.22 0-5.52 2.274-9.1 8.448-9.1 5.848 0 14.621 2.93 20.144 2.93 6.174 0 11.698-.65 15.597-9.1 7.148-15.6 4.548-72.13 4.548-102.68Zm291.011-147.51c70.182 0 102.674 65.96 102.674 106.57V1787c0 6.83-5.199 8.45-9.747 8.45l-160.51-.65c-11.048 0-14.947 2.28-14.947 8.77 0 4.23 0 16.58 1.95 25.35 11.047 50.36 44.514 85.45 94.226 85.45 45.164 0 60.76-34.76 72.132-34.76 5.199 0 7.149 2.27 7.149 9.09 0 16.57-33.792 57.84-102.025 57.84-79.28 0-124.769-54.26-124.769-133.54 0-85.78 50.363-152.39 133.867-152.39Zm45.488 114.37c5.524 0 5.849-11.37 5.849-16.24 0-33.8-20.145-76.03-63.034-76.03-34.442 0-54.912 24.36-66.284 56.86-3.899 11.37-5.198 22.74-5.198 27.29 0 7.47 7.473 7.47 20.794 7.47l107.873.65Zm224.231-114.37c50.69 0 89.03 31.52 89.03 59.14 0 8.44-9.75 23.71-25.35 23.71-20.79 0-28.27-10.07-39.64-30.21-3.9-6.83-12.34-20.8-48.73-20.8-33.47 0-70.187 34.12-70.187 90.65 0 70.84 50.687 134.52 105.277 134.52 45.16 0 65.3-34.12 79.93-34.12 6.17 0 9.09 3.25 9.09 10.08 0 16.57-46.78 52.96-115.02 52.96-79.277 0-124.766-54.26-124.766-133.54 0-82.53 63.359-152.39 140.366-152.39Zm185.89 196.58c0 34.11 15.27 52.31 38.34 52.31 11.7 0 21.77-4.55 28.59-9.1 4.23-2.6 6.82-5.2 9.75-5.2 4.55 0 7.15 2.28 7.15 7.15 0 20.79-37.04 43.21-72.78 43.21-31.52 0-54.59-17.54-59.14-46.13-1.3-8.45-2.6-25.35-2.6-42.24v-155.96c0-3.25-1.3-6.5-5.2-6.5h-16.89c-6.83 0-9.75-3.25-9.75-6.83 0-.65 0-1.3.32-1.95.33-1.3 1.3-2.92 2.28-3.89l67.58-67.59c4.22-4.22 6.5-6.82 11.05-6.82 3.9 0 5.85 2.6 5.85 9.42 0 2.6-1.95 44.52-1.95 44.84 0 6.82 1.95 6.82 9.09 6.82h66.29c5.52 0 7.8 0 7.8 2.28 0 .97-.65 2.6-1.3 4.87l-2.6 11.05c-1.63 7.8-1.63 7.8-9.75 7.8h-65.63c-5.2 0-6.5 1.62-6.5 6.5v155.96Zm87.84-50.69c0-82.53 63.69-145.89 150.44-145.89 78.63 0 132.24 55.24 132.24 135.49 0 84.81-60.43 150.44-144.91 150.44-79.28 0-137.77-60.76-137.77-140.04Zm151.09 114.37c45.16 0 82.85-37.69 82.85-91.3 0-69.86-43.21-143.62-102.02-143.62-43.21 0-79.93 37.37-79.93 93.91 0 70.83 44.51 141.01 99.1 141.01Zm184.03-112.75v-22.09c0-60.76-4.22-81.88-18.84-81.88-11.38 0-13 4.55-19.5 4.55s-11.05-4.55-11.05-11.05c0-8.12 6.5-10.72 21.45-17.22 18.84-8.12 51.01-16.25 61.08-16.25 6.83 0 7.15 4.23 7.8 13 .65 9.42 1.3 26.32 1.3 38.99 0 15.92 0 20.8 3.25 20.8 2.27 0 8.45-15.6 12.35-23.07 15.59-30.55 35.09-50.04 63.03-50.04 23.39 0 33.79 22.74 33.79 40.61 0 14.95-12.34 32.5-27.29 32.5-21.45 0-23.4-20.8-37.04-20.8-3.9 0-5.2 1.3-6.5 2.93-17.87 21.77-36.72 65.63-36.72 97.8 0 37.69 3.25 75.05 8.13 90 2.6 8.12 7.15 12.02 13.64 12.02 7.8 0 17.22-5.52 23.4-5.52 4.55 0 9.75 3.25 9.75 8.45 0 11.69-14.63 21.44-79.28 21.44-58.49 0-71.49-5.2-71.49-17.22 0-5.52 2.28-9.1 8.45-9.1 5.85 0 14.62 2.93 20.15 2.93 6.17 0 11.69-.65 15.59-9.1 7.15-15.6 4.55-72.13 4.55-102.68Zm212.8 210.55c0-17.22 12.02-31.84 31.84-31.84 13 0 16.89 10.07 20.14 17.87 2.28 5.52 4.55 7.47 9.1 7.47 9.1 0 10.07-6.82 13.65-15.27 4.22-10.07 6.82-21.44 9.1-31.84 1.3-6.82 1.3-27.94 1.3-33.79 0-7.48-2.6-18.85-8.45-31.19-29.89-63.04-60.11-121.85-85.78-184.56-7.8-19.17-12.02-20.79-15.6-20.79-4.87 0-12.67.97-16.24.97-5.85 0-10.4-4.22-10.4-10.07 0-6.5 3.9-11.7 14.3-15.27 10.72-3.58 34.44-5.85 65.63-5.85 38.67 0 46.14 4.22 46.14 14.3 0 5.84-2.93 9.42-19.5 9.42-6.5 0-10.39 3.9-10.39 9.42 0 6.17.65 12.02 2.6 17.55 14.94 43.86 30.54 78.63 48.73 114.69 6.5 13 10.73 16.57 14.3 16.57 2.92 0 4.22-4.87 9.1-20.47 12.99-41.26 20.79-79.6 25.34-101.37 3.25-15.92 3.9-26.32 3.9-30.54 0-7.15-5.2-8.45-11.7-8.45-4.55 0-6.17 1.62-9.74 1.62-4.23 0-9.1-3.57-9.1-9.42 0-12.02 22.74-15.27 48.74-15.27 37.36 0 50.03 5.52 50.03 14.95 0 7.47-5.85 10.39-22.09 10.39-12.35 0-14.95 13-27.29 52.64l-29.9 97.8c-10.39 34.12-27.62 103.98-33.79 128.99-5.2 22.42-19.49 84.81-66.93 84.81-25.02 0-37.04-17.22-37.04-33.47Z"/>
</svg>
