<?xml version="1.0" standalone="no"?>
<!DOCTYPE svg PUBLIC "-//W3C//DTD SVG 20010904//EN"
 "http://www.w3.org/TR/2001/REC-SVG-20010904/DTD/svg10.dtd">
<svg version="1.0" xmlns="http://www.w3.org/2000/svg"
 width="1920.000000pt" height="1920.000000pt" viewBox="0 0 1920.000000 1920.000000"
 preserveAspectRatio="xMidYMid meet">
<metadata>
Created by potrace 1.14, written by Peter Selinger 2001-2017
</metadata>
<g transform="translate(0.000000,1920.000000) scale(0.100000,-0.100000)"
fill="#000000" stroke="none">
<path d="M9787 16583 c-1 0 -94 -4 -207 -8 -113 -3 -225 -8 -250 -10 -25 -2
-94 -6 -155 -10 -121 -6 -206 -13 -275 -20 -25 -2 -83 -7 -130 -10 -47 -3 -96
-8 -110 -10 -14 -2 -59 -7 -100 -10 -41 -4 -86 -8 -100 -10 -23 -3 -66 -9
-165 -20 -150 -16 -169 -19 -280 -34 -38 -6 -94 -13 -124 -17 -30 -3 -63 -8
-75 -10 -12 -2 -41 -7 -66 -10 -25 -3 -52 -7 -60 -9 -8 -1 -40 -6 -70 -10 -30
-4 -64 -9 -75 -11 -33 -7 -208 -36 -238 -40 -15 -2 -37 -5 -50 -8 -12 -2 -76
-14 -142 -26 -100 -18 -201 -37 -340 -66 -344 -69 -663 -144 -825 -194 -58
-18 -109 -33 -115 -34 -25 -6 -526 -165 -550 -176 -11 -4 -63 -23 -115 -40
-289 -98 -838 -319 -920 -371 -8 -5 -26 -14 -40 -19 -43 -18 -220 -110 -350
-183 -170 -95 -277 -164 -450 -287 -119 -84 -104 -73 -230 -176 -418 -342
-767 -793 -950 -1229 -23 -55 -52 -122 -65 -150 -46 -100 -68 -206 -68 -330
-1 -65 10 -227 18 -285 2 -14 6 -50 10 -80 3 -30 8 -62 10 -70 2 -8 7 -39 10
-69 4 -30 8 -62 10 -71 2 -9 15 -86 29 -171 14 -85 28 -165 31 -179 3 -14 8
-41 11 -60 3 -19 11 -66 19 -105 12 -61 21 -113 41 -220 2 -14 6 -35 8 -47 2
-13 7 -34 10 -48 3 -14 8 -36 10 -50 2 -14 21 -106 40 -205 20 -99 39 -191 41
-205 3 -14 7 -36 10 -50 3 -14 7 -36 10 -50 2 -14 18 -88 34 -165 17 -77 32
-153 35 -170 3 -16 17 -84 31 -150 26 -120 69 -326 106 -505 11 -52 22 -102
24 -110 5 -23 65 -302 70 -327 2 -13 6 -26 8 -30 3 -5 8 -24 11 -43 3 -19 26
-129 51 -245 26 -115 48 -221 51 -235 3 -14 14 -65 25 -115 12 -49 22 -97 24
-105 2 -8 20 -89 40 -180 20 -91 38 -172 40 -180 18 -82 37 -168 40 -180 10
-42 38 -170 46 -209 5 -23 13 -59 18 -80 6 -20 12 -47 15 -61 8 -40 81 -362
121 -530 20 -85 40 -175 45 -200 5 -25 11 -54 14 -65 3 -11 16 -69 30 -130 15
-60 40 -171 57 -245 16 -74 37 -162 45 -195 9 -33 17 -67 19 -75 15 -68 116
-505 160 -690 2 -8 33 -141 69 -295 36 -154 70 -296 76 -315 5 -19 25 -101 45
-182 19 -82 51 -213 70 -292 20 -79 37 -152 39 -163 2 -10 48 -191 101 -403
53 -212 98 -392 100 -400 6 -30 78 -299 122 -460 25 -91 47 -172 48 -180 2 -8
4 -16 5 -17 2 -2 3 -6 4 -10 33 -146 163 -332 302 -431 133 -96 523 -248 904
-352 43 -12 244 -58 330 -76 141 -29 480 -81 640 -99 30 -3 71 -8 90 -10 19
-3 68 -7 109 -10 40 -3 99 -8 130 -10 402 -36 1237 -41 1671 -10 25 1 92 6
150 10 196 13 322 24 485 40 83 8 203 22 275 30 19 3 55 7 80 10 65 7 115 14
200 27 41 6 86 12 100 13 38 4 303 45 420 65 30 5 71 12 90 15 19 3 42 8 50
10 8 2 33 6 55 10 111 16 626 126 900 191 11 3 29 7 40 9 64 14 525 141 665
184 280 85 583 187 775 261 381 146 582 234 880 381 373 185 754 414 1000 603
58 44 228 179 241 191 6 5 46 42 90 80 118 105 212 204 254 265 117 174 156
379 114 610 -9 52 -18 104 -19 115 -2 11 -10 58 -19 105 -8 47 -17 101 -20
120 -3 19 -13 73 -21 120 -9 47 -18 101 -20 120 -3 19 -10 58 -15 85 -12 58
-46 250 -56 315 -9 60 -12 81 -29 175 -22 123 -24 134 -40 225 -8 47 -23 139
-35 205 -11 66 -23 135 -26 154 -3 18 -8 43 -10 55 -2 11 -7 37 -9 56 -3 19
-8 46 -11 60 -7 32 -33 183 -40 236 -6 39 -5 41 46 72 28 18 53 32 56 32 5 0
227 142 234 150 3 3 19 14 35 24 57 36 220 160 310 235 401 337 684 689 898
1116 52 104 123 264 133 300 1 6 16 46 32 90 24 69 72 226 87 290 18 76 54
247 59 280 3 22 8 50 10 62 3 12 7 49 11 82 3 33 8 68 10 79 26 135 26 720 1
997 -10 104 -44 354 -50 364 -2 3 -7 28 -10 55 -4 27 -14 79 -22 115 -9 36
-17 73 -19 81 -21 101 -90 321 -147 465 -65 166 -216 463 -240 473 -4 2 -8 8
-8 14 0 13 -97 153 -169 243 -31 39 -63 79 -71 90 -8 11 -78 83 -155 160 -272
272 -552 460 -960 645 -43 20 -220 91 -235 95 -3 0 -31 11 -64 23 -151 58
-530 160 -781 211 -124 25 -132 26 -280 51 -168 29 -175 30 -175 43 0 24 -151
551 -291 1017 -44 146 -85 283 -91 305 -18 63 -76 175 -121 235 -82 109 -230
237 -379 328 -59 36 -164 94 -178 97 -3 1 -27 12 -55 25 -27 13 -51 22 -53 21
-1 -1 -15 5 -30 13 -64 33 -370 128 -482 150 -14 3 -65 14 -115 25 -122 27
-278 53 -398 66 -34 4 -70 9 -79 10 -9 2 -49 7 -90 10 -40 4 -86 9 -103 11
-16 2 -67 6 -113 9 -45 3 -99 8 -120 10 -116 12 -965 28 -975 18z m848 -1537
c22 -3 60 -6 85 -7 25 -1 49 -4 53 -6 4 -3 -17 -22 -47 -44 -63 -45 -304 -199
-311 -199 -3 0 -24 -12 -48 -27 -23 -15 -55 -35 -72 -44 -16 -9 -84 -47 -150
-83 -283 -159 -795 -399 -1045 -490 -19 -7 -93 -34 -165 -60 -71 -26 -141 -52
-155 -57 -24 -11 -181 -61 -310 -101 -221 -67 -636 -172 -805 -202 -16 -3 -41
-8 -55 -11 -57 -12 -196 -38 -215 -40 -25 -4 -151 -24 -185 -30 -14 -3 -50 -7
-80 -10 -30 -3 -62 -8 -70 -10 -8 -2 -42 -7 -75 -11 -33 -4 -71 -8 -85 -10
-128 -14 -191 -20 -315 -29 -44 -3 -102 -8 -130 -10 -425 -33 -1138 -20 -1590
30 -22 3 -68 7 -102 10 -35 4 -71 8 -81 10 -10 1 -45 6 -77 10 -33 4 -71 8
-84 10 -13 3 -45 7 -70 11 -25 3 -57 8 -71 10 -14 2 -43 7 -65 10 -22 4 -41 8
-43 9 -13 12 312 207 504 303 426 214 865 375 1694 622 65 20 86 25 265 64 39
8 111 24 160 35 50 11 104 22 120 24 17 3 63 12 102 21 40 9 87 18 105 21 18
3 40 8 48 10 8 2 35 7 60 10 24 4 47 8 50 10 3 2 23 6 45 9 22 4 92 15 155 26
110 19 287 48 340 55 14 2 95 13 180 25 85 12 166 23 180 25 14 2 52 7 85 11
33 3 68 8 77 9 15 3 50 7 178 20 14 2 61 6 105 10 44 4 88 9 98 11 11 2 58 6
105 9 48 4 103 8 122 10 19 2 80 7 135 11 55 3 120 8 145 9 25 2 122 7 215 10
94 4 172 9 174 10 5 5 870 -4 916 -9z m1358 -1044 c5 -7 70 -240 116 -412 28
-105 112 -432 116 -450 2 -8 34 -134 70 -280 37 -146 69 -276 71 -290 3 -14
13 -56 23 -95 16 -59 25 -98 56 -235 2 -8 20 -85 40 -170 20 -85 38 -162 40
-170 8 -38 57 -261 70 -315 14 -60 32 -143 61 -277 8 -40 19 -91 25 -113 5
-22 11 -51 13 -65 3 -14 7 -34 10 -45 7 -33 96 -455 100 -478 2 -12 12 -58 21
-102 9 -44 19 -90 21 -103 3 -12 40 -201 83 -420 44 -218 93 -471 111 -562 17
-91 35 -185 40 -210 5 -25 14 -72 20 -105 5 -33 12 -70 14 -83 3 -12 17 -86
31 -165 14 -78 32 -173 40 -212 7 -38 16 -88 19 -110 4 -22 8 -51 11 -65 10
-47 15 -75 20 -105 3 -16 10 -55 16 -85 6 -30 12 -64 14 -75 2 -11 6 -36 9
-55 3 -19 8 -46 11 -60 4 -22 14 -74 31 -170 20 -116 35 -199 39 -220 6 -29
25 -141 31 -185 3 -16 9 -50 14 -75 5 -25 12 -61 15 -80 2 -19 7 -47 10 -62 9
-48 14 -80 30 -173 23 -130 24 -134 32 -184 4 -25 8 -48 8 -51 1 -3 5 -25 9
-50 5 -25 10 -54 12 -65 4 -18 39 -223 49 -285 12 -70 35 -202 39 -222 3 -13
7 -36 10 -53 4 -28 9 -60 21 -130 8 -43 44 -254 51 -294 3 -18 8 -43 10 -55 2
-11 7 -37 10 -56 3 -19 14 -82 24 -140 19 -106 25 -142 36 -216 l6 -41 -83
-60 c-293 -211 -653 -412 -1054 -587 -71 -32 -143 -63 -160 -70 -16 -8 -97
-39 -180 -71 -82 -31 -159 -61 -170 -66 -27 -11 -225 -79 -355 -122 -182 -60
-491 -152 -680 -202 -90 -23 -470 -114 -510 -121 -14 -3 -63 -14 -110 -24 -47
-11 -96 -21 -110 -24 -14 -2 -86 -16 -160 -31 -74 -15 -144 -28 -155 -30 -20
-3 -67 -11 -115 -20 -14 -3 -38 -7 -55 -9 -16 -3 -86 -14 -155 -25 -121 -20
-367 -55 -460 -66 -43 -5 -83 -10 -160 -20 -19 -2 -64 -7 -100 -11 -36 -3 -76
-7 -90 -9 -14 -1 -63 -6 -110 -10 -47 -4 -92 -9 -100 -10 -9 -2 -63 -6 -120
-10 -58 -3 -121 -8 -140 -10 -19 -2 -102 -6 -185 -10 -82 -4 -179 -9 -215 -11
-82 -4 -752 -4 -845 0 -153 7 -312 17 -355 22 -63 6 -114 11 -195 18 -64 6
-120 12 -185 21 -14 2 -47 7 -75 10 -81 11 -262 43 -370 65 -55 12 -109 23
-120 25 -74 16 -315 86 -320 94 -8 14 -230 895 -335 1331 -23 96 -63 258 -87
360 -25 102 -46 192 -48 200 -2 8 -40 170 -85 360 -44 190 -97 413 -116 495
-19 83 -41 177 -49 210 -22 91 -86 367 -91 390 -2 11 -20 90 -40 175 -20 85
-37 162 -39 170 -2 8 -20 87 -40 175 -20 88 -49 216 -65 285 -15 69 -42 188
-60 265 -17 77 -33 147 -35 155 -2 8 -10 45 -19 81 -8 37 -17 78 -20 90 -2 13
-21 98 -41 189 -20 91 -38 172 -40 180 -2 8 -21 96 -44 195 -22 99 -42 192
-45 208 -2 15 -7 35 -10 45 -3 9 -17 71 -31 137 -14 66 -28 129 -30 140 -50
227 -113 521 -136 630 -53 253 -99 470 -104 490 -3 11 -8 36 -11 55 -10 52 -9
50 -53 260 -23 107 -44 209 -47 225 -3 17 -14 75 -25 130 -12 55 -23 109 -25
120 -2 11 -8 43 -14 70 -5 28 -12 66 -15 85 -3 19 -10 51 -15 70 -16 62 -22
122 -12 116 6 -3 25 -8 43 -10 40 -6 103 -16 133 -22 19 -4 277 -39 359 -49
34 -4 189 -20 292 -30 33 -3 87 -8 120 -10 33 -2 96 -7 140 -10 332 -24 510
-29 995 -29 484 1 705 8 980 29 36 3 97 7 137 10 39 2 91 6 115 9 24 3 70 8
103 11 33 3 78 8 100 10 22 3 63 7 90 10 74 8 207 24 231 29 12 2 45 7 75 11
287 35 823 170 1134 285 208 76 336 125 372 141 23 11 44 19 48 19 3 0 24 9
48 19 23 11 94 42 158 69 63 28 165 73 225 102 115 54 121 57 169 83 17 8 67
34 113 56 45 23 113 58 150 78 37 20 85 45 107 56 22 11 69 36 105 57 36 20
85 48 110 62 116 65 339 196 372 219 14 11 29 19 32 19 5 0 81 47 216 135 97
63 703 468 715 477 6 5 58 43 117 84 59 41 110 80 113 85 7 11 22 12 28 1z
m2229 -1512 c181 -61 344 -139 495 -236 100 -64 124 -85 234 -194 154 -153
261 -342 333 -588 36 -120 69 -287 82 -407 3 -27 7 -63 10 -80 10 -54 13 -588
4 -655 -5 -36 -11 -86 -14 -111 -9 -82 -47 -242 -83 -349 -86 -264 -230 -494
-444 -709 -103 -105 -98 -105 -113 -4 -5 34 -58 329 -70 393 -6 31 -8 43 -46
255 -17 94 -32 181 -35 195 -2 14 -16 90 -30 170 -14 80 -27 156 -30 170 -6
28 -7 36 -29 165 -15 86 -19 108 -31 165 -6 30 -12 65 -25 145 -5 33 -12 71
-15 85 -3 14 -9 50 -15 80 -11 60 -17 92 -25 130 -2 14 -7 39 -10 55 -3 17 -7
41 -10 55 -3 14 -7 39 -10 55 -3 17 -10 53 -15 80 -5 28 -11 61 -14 75 -2 14
-27 142 -56 285 -29 143 -54 269 -56 280 -2 11 -6 31 -9 45 -3 14 -7 36 -10
50 -19 98 -79 379 -85 395 -9 26 -1 48 15 41 8 -3 56 -19 107 -36z"/>
</g>
</svg>
