<svg xmlns="http://www.w3.org/2000/svg" fill="none" viewBox="0 0 1025 684"><g filter="url(#a)"><g filter="url(#b)"><path fill="#3BA7FF" d="M754.102 225.904c11.915 17.508 23.352 22.212 34.348 21.056 14.432-1.517 20.311-11.689 19.444-19.935-1.156-10.996-8.416-15.618-31.139-18.614-25.39-3.585-48.455-16.447-51.543-45.826-2.853-27.145 15.155-55.788 49.688-59.418 13.916-1.462 24.477 3.16 29.288 2.654 5.326-.56 8.871-6.49 13.854-7.014 10.136-1.066 23.66 21.831 24.978 34.373 1.156 10.996-4.388 16.095-10.058 16.691-6.185.65-10.009-1.033-14.032-4.605-3.074-2.804-7.468-8.248-10.904-11.187-5.216-5.01-14.068-8.249-22.487-7.364-11.167 1.174-18.022 8.669-17.029 18.118 1.173 11.167 9.338 14.478 37.73 20.179 27.633 5.086 46.728 18.192 49.436 43.963 3.124 29.722-19.187 57.081-55.782 60.927-12.542 1.318-22.606-.23-29.107-.936-8.735-.472-14.866.694-21.14-2.815-7.532-3.899-18.245-18.233-19.96-34.554-.813-7.731 1.34-13.69 6.494-14.232 7.732-.812 13.147 2.787 17.921 8.539Z"/><path stroke="#142A3B" stroke-width="4" d="M774.691 101.178c7.229-.76 13.561.065 18.627.99 1.264.231 2.454.469 3.552.689 1.105.222 2.105.423 3.024.589 1.889.34 3.196.48 4.085.386 2.028-.213 3.814-1.458 6.07-3.137 2.05-1.524 4.64-3.547 7.783-3.877 3.314-.349 6.587 1.27 9.461 3.591 2.92 2.36 5.73 5.686 8.204 9.366 4.921 7.32 8.807 16.49 9.512 23.196.616 5.857-.53 10.404-2.832 13.619-2.305 3.218-5.64 4.916-9.005 5.27-3.323.349-6.134.082-8.701-.822-2.558-.901-4.741-2.386-6.87-4.276l-.009-.009-.01-.01c-1.62-1.477-3.564-3.625-5.441-5.666-1.928-2.096-3.804-4.101-5.415-5.479l-.044-.036-.041-.04c-4.783-4.594-13.048-7.642-20.893-6.818-5.191.546-9.219 2.541-11.821 5.331-2.583 2.77-3.865 6.429-3.428 10.589.268 2.556.919 4.508 2.049 6.128 1.135 1.626 2.861 3.073 5.531 4.44 5.446 2.787 14.298 4.996 28.555 7.859h-.001c13.996 2.58 26.034 7.223 34.952 14.649 8.977 7.476 14.673 17.676 16.08 31.065 3.256 30.981-20.036 59.182-57.562 63.126-12.76 1.341-23.036-.229-29.471-.931-2.113-.112-4.075-.127-5.963-.139-1.886-.012-3.726-.02-5.496-.127-3.577-.217-7.008-.843-10.503-2.798v-.001c-4.19-2.19-8.961-7.056-12.879-13.3-3.965-6.319-7.198-14.272-8.093-22.789-.427-4.059-.103-7.859 1.16-10.809 1.296-3.024 3.654-5.257 7.114-5.621 8.381-.88 14.284 2.966 19.196 8.691l.472.56.062.073.053.079c5.845 8.588 11.473 13.885 16.846 16.909 5.339 3.003 10.528 3.82 15.64 3.282 13.404-1.408 18.408-10.657 17.664-17.736-.268-2.548-.877-4.603-1.891-6.318-1.007-1.702-2.478-3.18-4.637-4.487-4.412-2.67-11.539-4.539-22.883-6.035l-.009-.001-.01-.002c-12.912-1.823-25.399-6.025-35.091-13.648-9.746-7.666-16.56-18.716-18.161-33.949-2.958-28.148 15.743-57.861 51.468-61.616Z"/></g><g filter="url(#c)"><path fill="#3BA7FF" d="m665.422 177.207-4.804-45.7c-4.46-42.436-7.894-55.277-16.412-56.987-5.832-.95-8.626.56-11.945.387-4.385-.408-7.323-3.573-7.775-7.868-.704-6.7 2.235-10.136 9.379-14.882 15.347-10.993 45.089-20.546 59.005-22.01 5.326-.559 7.894.735 8.544 6.92 1.824 17.352 2.371 44.045 6.994 88.027l4.713 44.842c4.622 43.982 8.055 66.724 11.806 74.32 1.826 4.151 4.394 5.445 7.233 6.015 3.545.669 5.932.245 8.617 1.005 2.342.796 4.449 2.659 4.846 6.439 1.011 9.621-8.439 17.215-46.065 21.169-36.938 3.883-51.713 2.135-52.833-8.517-.505-4.81 1.421-7.966 4.577-9.34 2.849-.994 6.285-1.355 8.962-2.331 3.02-1.012 6.357-3.969 7.416-8.77 2.235-10.136 1.786-34.234-2.258-72.719Z"/><path stroke="#142A3B" stroke-width="4" d="M692.661 28.159c2.738-.288 5.387-.194 7.423 1.31 2.081 1.539 2.976 4.13 3.318 7.388.918 8.728 1.515 19.809 2.455 34.106.942 14.326 2.232 31.967 4.54 53.923l4.713 44.84c2.311 21.985 4.32 38.624 6.217 50.705 1.852 11.798 3.564 18.999 5.232 22.602l.161.337.02.041.018.04c.8 1.819 1.702 2.882 2.601 3.552.904.673 1.939 1.053 3.179 1.303 1.616.305 2.963.363 4.358.436 1.201.064 2.478.139 3.838.457l.588.152.05.015.049.016c1.448.493 2.895 1.34 4.042 2.71 1.155 1.379 1.914 3.178 2.149 5.413.292 2.782-.171 5.522-1.773 8.081-1.581 2.524-4.168 4.711-7.839 6.614-7.291 3.777-19.378 6.692-38.233 8.674-18.457 1.94-31.622 2.506-40.357 1.18-4.374-.664-7.857-1.832-10.357-3.72-2.587-1.954-3.983-4.576-4.317-7.758-.285-2.711.101-5.113 1.131-7.091 1.037-1.992 2.665-3.433 4.637-4.292l.069-.029.07-.025c1.561-.544 3.258-.908 4.78-1.238 1.578-.343 2.968-.651 4.155-1.084l.025-.009.025-.008c2.384-.799 5.198-3.219 6.098-7.305l.098-.461c.991-4.874 1.409-13.074 1.082-24.781-.336-12.033-1.454-27.625-3.473-46.837l-4.804-45.7c-2.232-21.241-4.193-34.891-6.619-43.428-2.442-8.592-5.121-11.175-8.168-11.8-2.651-.428-4.593-.302-6.295-.083-1.623.209-3.491.598-5.39.5l-.04-.003-.041-.004c-5.405-.502-9.035-4.479-9.579-9.65-.391-3.724.227-6.75 2.076-9.5 1.769-2.63 4.565-4.85 8.148-7.232 7.894-5.65 19.357-10.855 30.513-14.822 11.166-3.971 22.248-6.78 29.427-7.535Z"/></g><g filter="url(#d)"><path fill="#3BA7FF" d="m582.256 185.949-4.803-45.701c-4.46-42.436-7.894-55.277-16.412-56.987-5.832-.95-8.626.56-11.945.387-4.385-.408-7.323-3.573-7.775-7.868-.704-6.7 2.235-10.136 9.379-14.882 15.347-10.993 45.089-20.546 59.005-22.01 5.326-.559 7.894.735 8.544 6.92 1.824 17.352 2.371 44.045 6.994 88.027l4.713 44.842c4.622 43.982 8.055 66.724 11.806 74.32 1.826 4.151 4.394 5.445 7.233 6.015 3.545.669 5.932.245 8.617 1.005 2.342.796 4.449 2.659 4.846 6.439 1.011 9.621-8.439 17.215-46.065 21.169-36.938 3.883-51.713 2.135-52.833-8.517-.505-4.81 1.421-7.966 4.577-9.34 2.849-.994 6.285-1.355 8.962-2.331 3.02-1.012 6.357-3.969 7.416-8.77 2.235-10.136 1.786-34.234-2.259-72.718Z"/><path stroke="#142A3B" stroke-width="4" d="M609.496 36.9c2.738-.288 5.387-.194 7.423 1.31 2.081 1.539 2.976 4.13 3.318 7.388.918 8.728 1.515 19.809 2.455 34.106.942 14.326 2.232 31.967 4.54 53.923l4.713 44.84c2.311 21.985 4.32 38.624 6.217 50.705 1.852 11.798 3.564 18.999 5.232 22.602l.161.337.02.041.018.04c.8 1.819 1.702 2.882 2.601 3.552.903.673 1.939 1.053 3.178 1.303 1.617.305 2.964.363 4.359.436 1.201.064 2.478.139 3.838.457l.588.153.05.014.049.016c1.448.493 2.895 1.34 4.042 2.71 1.155 1.379 1.914 3.178 2.149 5.413.292 2.782-.171 5.522-1.773 8.082-1.581 2.523-4.168 4.71-7.839 6.613-7.291 3.777-19.378 6.692-38.233 8.674-18.458 1.94-31.622 2.506-40.357 1.18-4.374-.664-7.857-1.832-10.357-3.72-2.587-1.954-3.983-4.576-4.317-7.758-.285-2.711.101-5.113 1.131-7.091 1.037-1.992 2.665-3.433 4.637-4.292l.069-.029.07-.024c1.561-.545 3.258-.909 4.78-1.239 1.578-.343 2.968-.651 4.155-1.084l.025-.009.025-.008c2.384-.799 5.198-3.219 6.098-7.305l.098-.461c.991-4.874 1.409-13.074 1.082-24.781-.336-12.033-1.454-27.625-3.473-46.837l-4.804-45.7c-2.232-21.241-4.193-34.891-6.619-43.428-2.442-8.592-5.121-11.175-8.168-11.8-2.651-.428-4.593-.302-6.295-.083-1.623.209-3.49.598-5.389.5l-.041-.003-.041-.004c-5.405-.502-9.035-4.479-9.579-9.65-.391-3.724.227-6.75 2.076-9.5 1.769-2.63 4.565-4.85 8.148-7.233 7.894-5.649 19.357-10.854 30.513-14.82 11.166-3.972 22.248-6.782 29.427-7.536Z"/></g><g filter="url(#e)"><path fill="#3BA7FF" d="M475.633 89.458c-1.842-17.524 19.075-28.407 37.458-30.34 15.806-1.661 26.846 5.864 28.146 18.234 1.733 16.493-16.543 29.358-37.503 31.561-14.089 1.48-26.638-5.538-28.101-19.455Zm24.926 136.344-1.137-10.824c-2.926-27.832-4.841-39.443-10.989-41.75-5.045-1.728-9.404-.227-12.623-1.105-3.581-1.013-5.777-3.735-6.157-7.343-.794-7.56 2.869-10.724 15.674-17.802 13.609-7.684 39.969-16.36 50.449-17.462 5.326-.56 7.089 1.339 7.667 6.837 1.372 13.058 1.056 15.002 6.13 63.279l2.04 19.414c1.734 16.494 4.055 33.62 6.667 40.294 1.519 4.53 4.177 6.683 7.016 7.253 3.58 1.013 5.95.417 9.015 1.484 2.739 1.276 5.036 3.292 5.541 8.103 1.192 11.339-12.888 17.856-47.077 21.45-33.502 3.521-49.362 1.367-50.572-10.144-.397-3.78.462-7.171 3.238-8.852 2.759-1.854 6.195-2.215 8.971-3.896 2.984-1.356 5.978-4.276 6.955-8.2 2.135-9.431.8-25.445-.808-40.736Z"/><path stroke="#142A3B" stroke-width="4" d="M535.567 127.527c2.83-.297 5.353-.026 7.183 1.669 1.754 1.626 2.387 4.139 2.682 6.948.688 6.549.955 10.341 1.679 18.464.726 8.139 1.914 20.684 4.45 44.815l2.041 19.414c.865 8.231 1.875 16.599 2.991 23.729 1.055 6.744 2.183 12.215 3.322 15.432l.228.613.018.047.015.046.128.368c1.262 3.486 3.183 4.976 5.01 5.472l.375.088.077.015.074.021c1.575.446 2.877.541 4.312.653 1.336.104 2.817.224 4.482.756l.334.111.095.033.092.043c1.54.717 3.104 1.711 4.346 3.315 1.249 1.613 2.056 3.692 2.34 6.392.348 3.311-.429 6.351-2.43 9.034-1.96 2.629-5.004 4.797-8.998 6.624-7.959 3.639-20.303 6.19-37.429 7.99-16.758 1.761-29.354 2.137-37.969.542-4.319-.799-7.828-2.126-10.37-4.185-2.61-2.113-4.076-4.899-4.431-8.281-.425-4.043.411-8.424 4.112-10.721l.307-.199c1.541-.971 3.2-1.552 4.638-2.045 1.612-.553 2.938-.997 4.105-1.703l.101-.061.107-.049c2.52-1.145 5.021-3.615 5.834-6.833 1.005-4.45 1.216-10.591.95-17.642-.265-7.022-.994-14.792-1.797-22.431l-1.138-10.824c-1.466-13.948-2.665-23.669-4.241-30.186-1.61-6.66-3.435-9.125-5.438-9.891-2.17-.737-4.225-.801-6.271-.754-1.903.045-4.225.235-6.199-.304l-.009-.002-.01-.003c-4.389-1.242-7.138-4.66-7.6-9.058-.217-2.06-.145-3.953.382-5.748.532-1.811 1.491-3.4 2.873-4.899 2.339-2.536 6.012-4.925 11.148-7.834l2.291-1.281c6.96-3.927 17.077-8.059 26.722-11.342 9.623-3.274 19.011-5.782 24.486-6.358Zm-22.685-70.398c8.249-.867 15.451.643 20.821 4.173 5.405 3.553 8.811 9.068 9.523 15.841.959 9.126-3.657 17.077-10.984 22.913-7.319 5.829-17.506 9.712-28.299 10.846-7.414.779-14.552-.663-20.085-4.267-5.575-3.63-9.418-9.397-10.214-16.967-1.023-9.736 4.335-17.46 11.98-22.86 7.632-5.39 17.801-8.685 27.258-9.679Z"/></g><g filter="url(#f)"><path fill="#3BA7FF" d="m311.068 214.452-5.598-53.26c-3.9-37.111-5.725-47.862-11.991-49.635-5.977-2.325-12.081.748-16.177-.211-3.183-.534-5.569-3.41-6.003-7.533-.541-5.154 2.76-8.454 10.094-13.047 17.887-11.607 44.582-22.056 56.78-23.338 7.044-.74 10.805 1.991 11.563 9.207 1.192 11.34.386 21.846 4.557 61.533l5.742 54.635c.398 3.78 1.536 8.003 5.316 7.605 2.405-.252 6.873-4.022 11.15-7.946l12.924-10.912c8.058-7.621 9.993-9.041 9.668-12.133-.163-1.547-1.076-1.972-2.179-2.551-.741-.443-2.17-.814-3.273-1.393-2.496-.606-4.412-2.315-4.792-5.923-.848-8.075 6.974-14.629 36.181-17.699 28.692-3.016 41.477-.364 42.814 12.349.487 4.639-2.56 7.044-6.268 8.128-3.518 1.239-8.247.867-12.162 1.626-4.774.849-9.007 3.552-17.607 12.62l-17.925 17.865c-3.862 4.575-3.808 5.09 1.481 10.788l47.853 50.382c8.227 8.863 14.665 13.918 19.321 16.903 3.327 1.908 6.754 3.112 10.109 3.627 6.501.707 10 2.597 10.795 10.157.704 6.7-2.95 11.6-14.977 12.864l-31.784 3.341c-13.401 1.409-20.011 2.972-23.736.584-3.173-2.098-8.76-8.98-23.397-24.291l-31.471-33.344c-3.698-3.78-5.271-5.526-7.677-5.273-2.233.235-4.078 2.513-3.446 8.526 1.914 18.212 3.613 27.761 5.719 32.924 1.446 3.844 3.688 5.345 6.355 5.933 3.373.688 5.607.453 8.446 1.023 2.703.932 5.361 3.084 5.795 7.208 1.354 12.885-15.33 17.766-49.519 21.359-30.925 3.25-47.283 1.322-48.402-9.33-.379-3.608.399-6.122 2.696-7.405 2.776-1.682 6.881-2.287 9.811-4.158 3.409-2.269 6.313-6.049 7.281-11.709 1.728-8.346-.203-33.33-4.067-70.096Z"/><path stroke="#142A3B" stroke-width="4" d="M337.964 65.439c3.766-.396 7.08.086 9.577 2.032 2.514 1.958 3.776 5.066 4.185 8.955.603 5.739.705 11.323 1.169 20.242.467 8.969 1.305 21.483 3.387 41.292l5.743 54.634c.193 1.835.547 3.504 1.155 4.62.291.533.588.839.855 1.005.238.147.567.257 1.107.2.209-.022.663-.156 1.406-.562.708-.387 1.541-.944 2.476-1.646 1.87-1.402 3.996-3.27 6.125-5.223l.031-.028.032-.026 12.89-10.886c4.077-3.855 6.427-5.983 7.781-7.564.654-.764.955-1.268 1.101-1.651.128-.338.175-.682.12-1.207a1.014 1.014 0 0 0-.074-.325.254.254 0 0 0-.061-.081 1.65 1.65 0 0 0-.298-.212c-.182-.109-.381-.21-.686-.37l-.05-.026-.047-.029c-.18-.107-.523-.244-1.178-.49-.503-.189-1.159-.434-1.779-.739-1.471-.396-2.876-1.139-3.982-2.397-1.166-1.326-1.865-3.073-2.089-5.198-.251-2.389.14-4.755 1.459-6.972 1.304-2.189 3.424-4.084 6.384-5.715 5.866-3.233 15.457-5.67 30.118-7.211 14.348-1.508 25.051-1.647 32.396.335 3.715 1.002 6.712 2.583 8.878 4.931 2.183 2.366 3.369 5.348 3.738 8.865.299 2.843-.495 5.169-2.052 6.93-1.494 1.689-3.559 2.711-5.611 3.315-2.021.698-4.297.924-6.378 1.078-2.203.164-4.19.252-5.998.602l-.014.004-.016.002c-4.086.727-7.932 2.988-16.507 12.028l-.018.02-.021.019-17.858 17.799c-.955 1.132-1.544 1.876-1.892 2.472-.321.551-.31.768-.295.882.027.198.164.607.787 1.44.614.822 1.535 1.845 2.869 3.283l47.838 50.365.007.009.008.008c8.103 8.729 14.398 13.666 18.888 16.55 3.109 1.778 6.283 2.885 9.359 3.361 3.299.363 6.291 1.061 8.543 2.96 2.339 1.971 3.532 4.923 3.958 8.967.398 3.787-.429 7.369-3.323 10.129-2.795 2.665-7.237 4.283-13.434 4.935l-31.784 3.34c-6.561.69-11.743 1.451-15.564 1.722-3.801.269-6.993.138-9.46-1.443l-.012-.008-.012-.007c-1.834-1.213-4.209-3.676-7.762-7.498-3.636-3.91-8.672-9.438-15.978-17.08l-.009-.009-31.471-33.344v-.001c-1.899-1.942-3.076-3.168-4.077-3.928-.896-.68-1.395-.785-1.935-.728-.403.042-.839.228-1.211.987-.427.872-.753 2.513-.456 5.342 1.86 17.699 3.497 26.937 5.397 31.909l.185.468.009.025.011.026c.632 1.679 1.385 2.712 2.156 3.379.764.661 1.662 1.061 2.747 1.302 1.545.314 2.834.42 4.151.517 1.146.085 2.358.165 3.69.394l.579.107.13.026.128.044c3.241 1.117 6.598 3.807 7.132 8.89.391 3.717-.532 6.98-2.801 9.746-2.211 2.695-5.589 4.785-9.882 6.486-8.562 3.393-21.535 5.53-38.616 7.325-15.48 1.627-27.54 1.988-35.93.53-4.198-.73-7.664-1.945-10.194-3.839-2.604-1.95-4.136-4.565-4.477-7.801-.41-3.908.364-7.491 3.71-9.361 1.601-.956 3.528-1.589 5.176-2.153 1.76-.602 3.28-1.15 4.506-1.927 2.962-1.973 5.542-5.277 6.415-10.378l.012-.068c.8-3.862.78-11.914.027-23.859-.747-11.841-2.192-27.245-4.124-45.623l-5.598-53.26c-1.954-18.594-3.374-30.426-5.069-37.832-.848-3.706-1.728-6.128-2.675-7.69-.902-1.489-1.811-2.116-2.803-2.397l-.092-.026-.088-.034c-2.495-.971-5.089-.848-7.813-.498-1.282.165-2.758.404-4.036.525-1.303.122-2.694.158-4.023-.147-4.258-.761-7.076-4.562-7.572-9.279-.331-3.148.549-5.785 2.536-8.21 1.897-2.316 4.8-4.433 8.485-6.74 9.072-5.884 20.325-11.447 30.835-15.7 10.477-4.241 20.411-7.262 26.798-7.933Z"/></g><g filter="url(#g)"><path fill="#3BA7FF" d="M140.928 264.469c10.131 28.639 33.45 40.605 59.049 37.915 29.035-3.052 43.225-21.74 41.672-36.515-1.823-17.353-15.123-26.551-51.509-28.98-44.867-3.796-83.521-19.535-88.667-68.5-4.966-47.247 33.813-81.547 83.293-86.748 31.613-3.323 39.161 7.349 45.69 6.662 5.498-.578 9.061-6.337 14.903-6.95 14.603-1.536 30.134 23.93 32.247 44.031 1.498 14.26-4.571 27.578-15.223 28.698-8.419.885-11.402-4.36-15.804-11.54-3.273-4.694-7.531-10.5-12.521-15.013-10.398-9.677-25.488-16.081-40.779-14.474-20.96 2.203-38.17 15.303-36.364 32.484 2.329 22.163 23.108 24.842 55.868 27.479 41.775 4.121 78.756 15.52 83.613 61.736 5.183 49.308-29.474 93.076-89.435 99.378-35.735 3.756-66.659-2.895-81.44-19.58-4.683-4.893-13.75-23.394-15.989-44.698-1.427-13.573 2.083-19.848 10.158-20.697 10.48-1.101 17.83 7.68 21.238 15.312Z"/><path stroke="#142A3B" stroke-width="4" d="M184.557 79.652c16.069-1.689 26.142.171 33.079 2.43 3.413 1.11 6.095 2.334 8.118 3.147 2.131.856 3.406 1.199 4.492 1.085 2.152-.226 3.994-1.465 6.399-3.12 2.25-1.55 5.003-3.463 8.504-3.831 4.283-.45 8.469 1.097 12.261 3.757 3.794 2.662 7.328 6.527 10.404 11.001 6.143 8.936 10.686 20.642 11.78 31.054.783 7.447-.396 14.74-3.259 20.39-2.867 5.657-7.545 9.855-13.743 10.506-4.744.499-8.161-.752-10.95-3.243-2.605-2.328-4.61-5.719-6.735-9.186-3.262-4.676-7.398-10.296-12.191-14.63l-.021-.019c-10.053-9.356-24.59-15.485-39.207-13.949-10.153 1.067-19.295 4.768-25.633 10.16-6.312 5.371-9.77 12.333-8.951 20.125.549 5.223 2.165 9.159 4.665 12.216 2.511 3.071 6.027 5.394 10.601 7.194 8.671 3.412 20.692 4.786 35.726 6.036l3.048.249.017.001.018.002c20.947 2.067 41.015 5.977 56.492 15.363 15.617 9.471 26.421 24.436 28.914 48.155 5.311 50.53-30.284 95.173-91.215 101.577-18.036 1.896-34.933 1.174-49.242-2.166-14.259-3.329-26.095-9.297-33.852-18.021l-.248-.266c-2.589-2.852-6.018-8.858-9.077-16.575-3.188-8.04-6.067-18.17-7.208-29.031-.727-6.915-.25-12.345 1.721-16.233 2.062-4.07 5.615-6.178 10.217-6.662 5.9-.62 10.881 1.565 14.768 4.841 3.619 3.05 6.352 7.086 8.157 10.888l.347.757.033.073.027.076c4.929 13.931 13.016 23.691 22.875 29.662 9.871 5.977 21.65 8.236 34.079 6.929 28.374-2.982 41.29-21.031 39.894-34.317-.851-8.095-4.308-14.145-11.821-18.571-7.687-4.528-19.722-7.413-37.833-8.622l-.036-.002c-22.569-1.909-43.84-6.837-60.163-17.637-16.426-10.868-27.69-27.586-30.324-52.647-5.122-48.731 34.925-83.675 85.073-88.946Z"/></g><g filter="url(#h)"><path fill="#3BA7FF" d="M890.07 485.777c11.915 17.507 23.353 22.211 34.349 21.055 14.432-1.516 20.311-11.688 19.444-19.935-1.156-10.995-8.416-15.617-31.139-18.614-25.39-3.584-48.455-16.446-51.543-45.825-2.853-27.146 15.155-55.789 49.688-59.418 13.916-1.463 24.477 3.159 29.287 2.654 5.326-.56 8.872-6.491 13.854-7.015 10.137-1.065 23.661 21.832 24.979 34.374 1.156 10.995-4.388 16.094-10.058 16.69-6.185.65-10.009-1.032-14.033-4.605-3.074-2.803-7.467-8.247-10.903-11.187-5.217-5.01-14.069-8.248-22.487-7.363-11.167 1.173-18.023 8.668-17.03 18.118 1.174 11.167 9.339 14.478 37.731 20.179 27.632 5.086 46.728 18.191 49.436 43.962 3.124 29.723-19.187 57.081-55.782 60.927-12.542 1.319-22.606-.229-29.107-.935-8.735-.472-14.866.693-21.141-2.816-7.531-3.898-18.244-18.232-19.96-34.554-.812-7.731 1.341-13.689 6.495-14.231 7.731-.813 13.147 2.787 17.92 8.539Z"/><path stroke="#142A3B" stroke-width="4" d="M910.66 361.051c7.229-.76 13.561.065 18.626.99 1.265.231 2.455.468 3.553.689 1.104.221 2.105.423 3.023.588 1.89.341 3.197.48 4.086.387 2.028-.213 3.813-1.458 6.07-3.137 2.049-1.525 4.64-3.547 7.783-3.878 3.314-.348 6.587 1.27 9.46 3.591 2.921 2.36 5.731 5.686 8.205 9.366 4.921 7.32 8.807 16.491 9.512 23.196.615 5.857-.531 10.404-2.832 13.619-2.305 3.219-5.641 4.916-9.006 5.27-3.323.349-6.133.082-8.701-.822-2.557-.9-4.74-2.385-6.869-4.276l-.01-.008-.01-.01c-1.619-1.477-3.563-3.626-5.44-5.667-1.928-2.096-3.804-4.1-5.415-5.478l-.044-.037-.041-.04c-4.784-4.594-13.049-7.642-20.893-6.817-5.191.546-9.22 2.541-11.821 5.33-2.583 2.77-3.866 6.43-3.429 10.589.269 2.557.92 4.508 2.05 6.128 1.134 1.627 2.861 3.074 5.531 4.441 5.446 2.787 14.297 4.996 28.554 7.859h-.001c13.997 2.58 26.035 7.222 34.953 14.648 8.977 7.476 14.673 17.677 16.08 31.066 3.256 30.98-20.036 59.181-57.563 63.125-12.759 1.341-23.035-.228-29.47-.93-2.113-.113-4.075-.128-5.964-.139-1.886-.012-3.726-.021-5.495-.128-3.577-.216-7.008-.842-10.503-2.797v-.001c-4.191-2.191-8.962-7.056-12.879-13.3-3.965-6.32-7.198-14.272-8.094-22.79-.426-4.059-.102-7.859 1.161-10.808 1.296-3.025 3.654-5.257 7.114-5.621 8.38-.881 14.284 2.966 19.196 8.69l.472.561.062.073.053.078c5.845 8.588 11.472 13.886 16.846 16.909 5.339 3.004 10.528 3.82 15.64 3.283 13.403-1.409 18.408-10.658 17.664-17.737-.268-2.548-.877-4.602-1.891-6.317-1.007-1.703-2.478-3.181-4.637-4.487-4.413-2.67-11.539-4.54-22.883-6.036l-.009-.001-.01-.002c-12.913-1.823-25.4-6.024-35.091-13.648-9.746-7.666-16.56-18.716-18.161-33.948-2.958-28.148 15.743-57.862 51.468-61.616Z"/></g><g filter="url(#i)"><path fill="#3BA7FF" d="m693.846 448.383-5.598-53.26c-3.9-37.11-5.725-47.861-11.991-49.635-5.977-2.324-12.081.749-16.177-.21-3.183-.534-5.569-3.41-6.003-7.533-.542-5.155 2.759-8.454 10.093-13.047 17.888-11.607 44.582-22.056 56.781-23.338 7.044-.74 10.805 1.991 11.563 9.207 1.192 11.339.386 21.846 4.557 61.533l5.742 54.635c.398 3.78 1.536 8.002 5.316 7.605 2.405-.253 6.873-4.023 11.15-7.946l12.924-10.912c8.057-7.622 9.993-9.041 9.668-12.134-.163-1.546-1.076-1.971-2.179-2.55-.742-.443-2.17-.814-3.273-1.393-2.496-.606-4.413-2.315-4.792-5.923-.848-8.075 6.974-14.63 36.181-17.699 28.692-3.016 41.477-.365 42.814 12.349.487 4.639-2.561 7.044-6.268 8.128-3.518 1.238-8.247.867-12.162 1.626-4.775.849-9.007 3.552-17.608 12.62l-17.924 17.865c-3.862 4.575-3.808 5.09 1.481 10.788l47.853 50.382c8.227 8.862 14.664 13.918 19.321 16.903 3.327 1.908 6.754 3.111 10.108 3.627 6.502.707 10.001 2.597 10.795 10.156.705 6.701-2.949 11.601-14.976 12.865l-31.784 3.341c-13.401 1.408-20.011 2.972-23.736.584-3.173-2.098-8.761-8.98-23.398-24.291l-31.471-33.344c-3.697-3.78-5.27-5.526-7.676-5.273-2.233.235-4.078 2.513-3.446 8.526 1.914 18.212 3.612 27.761 5.718 32.924 1.447 3.843 3.689 5.345 6.356 5.933 3.373.688 5.606.453 8.446 1.023 2.703.932 5.361 3.084 5.795 7.208 1.354 12.885-15.33 17.765-49.519 21.359-30.926 3.25-47.283 1.322-48.402-9.33-.38-3.608.399-6.122 2.695-7.406 2.777-1.681 6.882-2.286 9.812-4.158 3.409-2.269 6.313-6.048 7.281-11.708 1.728-8.346-.203-33.33-4.067-70.097Z"/><path stroke="#142A3B" stroke-width="4" d="M720.742 299.371c3.766-.396 7.08.086 9.577 2.031 2.514 1.959 3.776 5.067 4.185 8.956.603 5.739.704 11.323 1.169 20.241.467 8.97 1.305 21.484 3.387 41.292l5.743 54.635c.192 1.835.547 3.504 1.156 4.619.291.534.586.84.854 1.005.237.148.567.258 1.107.201.209-.022.663-.156 1.406-.562.708-.387 1.541-.944 2.476-1.646 1.87-1.402 3.996-3.27 6.125-5.223l.031-.028.031-.026 12.884-10.88c4.081-3.859 6.434-5.988 7.788-7.57.655-.764.955-1.269 1.1-1.651.129-.338.176-.682.121-1.207a1.038 1.038 0 0 0-.073-.326.258.258 0 0 0-.062-.08 1.691 1.691 0 0 0-.298-.212c-.183-.109-.381-.21-.686-.37l-.05-.027-.047-.028c-.18-.108-.523-.244-1.178-.49-.503-.189-1.159-.433-1.779-.738-1.471-.396-2.876-1.14-3.982-2.398-1.166-1.327-1.865-3.073-2.089-5.198-.251-2.389.139-4.756 1.459-6.972 1.303-2.19 3.424-4.084 6.384-5.716 5.866-3.233 15.457-5.669 30.118-7.21 14.348-1.508 25.051-1.647 32.395.335 3.715 1.002 6.713 2.583 8.879 4.931 2.183 2.366 3.368 5.348 3.738 8.864.299 2.843-.494 5.17-2.051 6.931-1.495 1.689-3.56 2.711-5.612 3.315-2.021.698-4.297.924-6.378 1.078-2.204.164-4.19.252-5.998.602l-.014.003-.016.003c-4.087.727-7.932 2.987-16.507 12.028l-.018.019-.021.02-17.858 17.798c-.955 1.133-1.545 1.877-1.892 2.472-.322.552-.311.769-.295.883.027.198.164.607.787 1.44.614.822 1.535 1.845 2.869 3.283l47.837 50.365.008.009.008.008c8.103 8.729 14.398 13.665 18.888 16.55 3.109 1.778 6.282 2.884 9.359 3.36 3.299.364 6.291 1.062 8.543 2.96 2.339 1.972 3.532 4.924 3.957 8.968.398 3.787-.428 7.369-3.322 10.128-2.795 2.665-7.237 4.284-13.433 4.935l-31.785 3.341c-6.561.69-11.743 1.451-15.565 1.722-3.8.268-6.992.138-9.459-1.443l-.013-.008-.011-.008c-1.834-1.212-4.209-3.676-7.762-7.497-3.636-3.911-8.673-9.438-15.978-17.08l-.009-.009-31.471-33.345-.001-.001c-1.898-1.941-3.075-3.167-4.076-3.927-.897-.68-1.395-.785-1.935-.728-.403.042-.839.228-1.211.987-.427.872-.753 2.513-.456 5.342 1.86 17.699 3.497 26.937 5.397 31.909l.185.468.009.025.011.026c.632 1.679 1.385 2.712 2.156 3.379.764.661 1.662 1.061 2.747 1.302 1.544.313 2.834.42 4.151.517 1.146.085 2.358.165 3.69.394l.579.107.13.026.128.044c3.241 1.117 6.598 3.806 7.132 8.89.391 3.717-.532 6.979-2.801 9.746-2.211 2.695-5.589 4.784-9.882 6.486-8.562 3.393-21.535 5.529-38.616 7.325-15.48 1.627-27.54 1.988-35.93.53-4.199-.73-7.664-1.945-10.194-3.84-2.604-1.949-4.137-4.564-4.477-7.8-.411-3.908.364-7.491 3.71-9.361 1.601-.956 3.528-1.589 5.176-2.153 1.759-.602 3.279-1.15 4.505-1.926 2.963-1.973 5.543-5.277 6.415-10.379l.007-.034.007-.034c.8-3.862.779-11.915.026-23.859-.747-11.842-2.192-27.245-4.124-45.623l-5.598-53.26c-1.954-18.595-3.375-30.426-5.069-37.832-.848-3.706-1.728-6.128-2.675-7.69-.902-1.49-1.812-2.116-2.803-2.397l-.092-.026-.088-.034c-2.495-.971-5.089-.848-7.814-.498-1.282.165-2.758.404-4.035.524-1.303.123-2.694.158-4.023-.146-4.258-.761-7.076-4.562-7.572-9.279-.331-3.148.549-5.786 2.536-8.211 1.897-2.315 4.8-4.432 8.485-6.74 9.072-5.883 20.325-11.446 30.835-15.7 10.476-4.24 20.411-7.261 26.798-7.932Z"/></g><g filter="url(#j)"><path fill="#3BA7FF" d="m610.509 457.142-4.803-45.7c-4.46-42.436-7.894-55.277-16.412-56.987-5.832-.951-8.626.559-11.945.387-4.385-.408-7.323-3.573-7.775-7.868-.704-6.701 2.235-10.136 9.379-14.882 15.347-10.993 45.088-20.546 59.005-22.009 5.326-.56 7.894.734 8.544 6.919 1.824 17.352 2.371 44.045 6.994 88.027l4.713 44.842c4.622 43.982 8.055 66.724 11.806 74.32 1.826 4.151 4.394 5.444 7.233 6.015 3.545.669 5.932.245 8.617 1.005 2.342.796 4.449 2.659 4.846 6.439 1.011 9.621-8.439 17.215-46.065 21.169-36.938 3.883-51.713 2.135-52.833-8.517-.505-4.81 1.421-7.966 4.577-9.34 2.849-.994 6.285-1.355 8.962-2.331 3.02-1.013 6.357-3.969 7.416-8.77 2.235-10.136 1.786-34.234-2.259-72.719Z"/><path stroke="#142A3B" stroke-width="4" d="M637.749 308.094c2.738-.288 5.387-.194 7.423 1.31 2.081 1.539 2.976 4.13 3.318 7.388.918 8.728 1.515 19.809 2.455 34.106.941 14.326 2.232 31.967 4.54 53.923l4.713 44.84c2.311 21.985 4.32 38.624 6.217 50.704 1.852 11.799 3.564 19 5.232 22.603l.161.337.02.04.018.041c.8 1.819 1.702 2.881 2.601 3.552.903.673 1.939 1.052 3.178 1.303 1.616.305 2.964.363 4.359.436 1.201.064 2.478.139 3.838.457l.588.152.05.015.049.016c1.448.493 2.895 1.34 4.042 2.71 1.155 1.379 1.914 3.178 2.149 5.413.292 2.782-.171 5.522-1.774 8.081-1.58 2.524-4.167 4.711-7.839 6.614-7.29 3.777-19.377 6.692-38.232 8.674-18.458 1.94-31.622 2.506-40.357 1.18-4.374-.664-7.857-1.832-10.357-3.72-2.587-1.954-3.983-4.576-4.317-7.758-.285-2.711.101-5.113 1.131-7.091 1.037-1.992 2.665-3.433 4.637-4.292l.069-.03.07-.024c1.561-.544 3.258-.908 4.78-1.238 1.578-.343 2.968-.651 4.155-1.084l.025-.009.025-.008c2.384-.799 5.197-3.219 6.098-7.305l.098-.461c.991-4.874 1.409-13.074 1.082-24.781-.337-12.033-1.454-27.625-3.474-46.837l-4.803-45.7c-2.232-21.241-4.193-34.891-6.62-43.428-2.442-8.592-5.12-11.176-8.167-11.801-2.651-.427-4.593-.301-6.295-.082-1.623.209-3.49.598-5.389.499l-.041-.002-.041-.004c-5.405-.502-9.035-4.479-9.579-9.65-.391-3.724.227-6.749 2.076-9.499 1.769-2.63 4.565-4.851 8.148-7.234 7.894-5.649 19.357-10.854 30.513-14.821 11.166-3.971 22.248-6.781 29.427-7.535Z"/></g><g filter="url(#k)"><path fill="#3BA7FF" d="M425.213 500.936c-4.948-47.075 29.474-89.776 83.077-95.41 45.873-4.821 83.367 23.026 88.459 71.475 5.164 49.137-29.601 91.874-80.284 97.201-47.075 4.948-86.214-25.332-91.252-73.266Zm97.767 46.005c17.009-1.788 28.269-18.605 26.192-38.363-3.34-31.784-23.642-76.203-49.585-73.476-15.978 1.679-27.536 17.312-25.297 38.616 3.575 34.017 24.122 75.805 48.69 73.223Z"/><path stroke="#142A3B" stroke-width="4" d="M508.082 403.537c23.396-2.459 44.771 3.407 60.968 16.18 16.206 12.779 27.091 32.364 29.688 57.075 5.283 50.263-30.311 93.96-82.064 99.399-48.137 5.059-88.293-25.977-93.45-75.045-5.073-48.263 30.247-91.869 84.858-97.609Zm-8.286 33.554c-14.578 1.532-25.675 15.884-23.517 36.417 1.76 16.744 7.706 35.411 16.197 49.515 8.592 14.273 19.272 23.088 30.295 21.929 15.608-1.64 26.408-17.176 24.412-36.165-1.642-15.625-7.468-34.396-16.048-48.868-8.68-14.644-19.644-24.057-31.339-22.828Z"/></g><g filter="url(#l)"><path fill="#3BA7FF" d="m284.27 491.605-3.973-37.797c-2.871-27.318-7.081-50.846-15.345-53.452-11.863-3.79-45.581-8.932-68.603-6.512-20.101 2.113-39.68 15.809-36.285 48.108 2.275 21.648 15.719 32.221 31.788 31.4 9.729.02 13.113-10.758 25.247-10.991 12.171.11 21.583 8.675 23.335 25.34 1.571 14.947-11.823 27.993-30.035 29.907-30.925 3.251-73.547-15.546-78.73-64.854-6.446-61.335 38.21-95.906 94.047-101.775 35.736-3.756 95.505-.31 151.17-6.161 9.106-.957 17.642-2.375 22.408-4.961 6.258-3.263 9.215-9.827 16.603-10.604 11.339-1.191 18.255 6.767 19.429 17.934 2.185 20.789-27.197 43.679-79.426 49.169-19.758 2.076-21.521 3.478-22.635 11.064-.462 7.17.513 19.748 1.109 25.418.541 5.154.649 9.486 1.191 14.64.849 8.075 1.87 9.531 8.543 10.219 4.404.579 9.784.535 18.546-.386 19.07-2.004 29.552-9.707 42.437-11.061 7.903-.831 12.776 4.216 13.426 10.401 1.192 11.339-.518 16.556.403 25.318 1.752 16.665 5.151 19.261 6 27.336.885 8.418-3.836 13.083-10.88 13.824-18.04 1.896-21.662-21-32.438-34.285-2.884-2.649-6.583-3.129-14.142-2.335-8.075.849-14.224 1.843-17.832 2.222-6.872.722-7.714 4.285-7.28 8.408.632 6.013.947 13.971 1.66 22.407l1.199 22.977c3.14 43.096-4.178 57.761-8.221 70.519-9.59 27.759-35.643 45.957-68.63 49.424-39.859 4.189-75.257-16.93-77.965-42.701-1.77-16.837 8.378-29.368 24.871-31.102 16.837-1.769 29.521 11.489 30.93 24.89 1.083 10.308 5.828 24.053 25.586 21.976 18.555-1.95 25.53-23.18 22.496-52.044-1.354-12.885-4.298-37.589-10.004-91.88Z"/><path stroke="#142A3B" stroke-width="4" d="M415.688 327.264c6.22-.653 11.388 1.21 15.138 4.895 3.704 3.641 5.867 8.9 6.489 14.819 1.207 11.479-6.324 23.013-20.193 32.198-13.94 9.232-34.675 16.401-61.013 19.169-4.932.519-8.683.989-11.564 1.516-2.901.531-4.781 1.097-6.044 1.742-1.19.608-1.808 1.273-2.228 2.092-.46.899-.744 2.098-1.016 3.931-.438 6.999.512 19.356 1.106 25.003.275 2.619.439 5.025.601 7.392.163 2.375.323 4.712.59 7.248.211 2.005.422 3.493.706 4.632.282 1.132.602 1.777.94 2.189.584.713 1.606 1.205 4.508 1.55l.605.068.029.002.027.004c4.175.549 9.377.523 18.076-.392 9.296-.977 16.506-3.34 23.079-5.671 6.519-2.311 12.623-4.682 19.358-5.39 4.438-.466 8.188.714 10.932 3.03 2.724 2.3 4.319 5.602 4.692 9.151.611 5.815.477 10.069.312 13.92-.164 3.843-.352 7.189.091 11.398.86 8.186 2.118 12.87 3.258 16.499 1.136 3.618 2.291 6.544 2.742 10.837.486 4.625-.552 8.475-2.927 11.29-2.361 2.798-5.832 4.322-9.733 4.732-4.986.524-9.069-.675-12.503-3.028-3.373-2.313-6.028-5.677-8.341-9.344-2.303-3.653-4.389-7.815-6.488-11.729-2.104-3.923-4.25-7.656-6.776-10.796-2.163-1.922-5.05-2.503-12.472-1.723-4.009.421-7.544.879-10.534 1.28-2.97.398-5.457.748-7.298.942-3.142.33-4.384 1.254-4.934 2.063-.6.885-.771 2.195-.566 4.147.63 5.992.966 14.19 1.664 22.447l.005.065 1.196 22.936.14 2.011c1.373 20.576.333 34.62-1.584 45.129-1.973 10.814-4.891 17.896-6.866 24.129l-.007.024-.01.024c-9.893 28.64-36.719 47.229-70.31 50.76-20.324 2.136-39.557-2.171-54.104-10.361-14.506-8.167-24.614-20.367-26.059-34.12-.933-8.875 1.268-16.76 6.016-22.676 4.749-5.916 11.921-9.708 20.635-10.624 18.075-1.9 31.619 12.315 33.128 26.67.526 5.008 1.922 10.539 5.326 14.547 3.292 3.877 8.723 6.63 18.062 5.649 8.38-.881 14.224-6.049 17.698-14.686 3.513-8.734 4.518-20.889 3.018-35.16-.676-6.435-1.749-15.817-3.369-30.401a10251.14 10251.14 0 0 1-6.636-61.479l-3.972-37.797c-1.434-13.643-3.193-26.235-5.599-35.71-1.206-4.744-2.549-8.605-4.041-11.399-1.526-2.857-3.013-4.233-4.317-4.644l-.008-.002c-5.751-1.838-16.999-4.053-29.734-5.504-12.724-1.449-26.746-2.113-38.051-.925-9.696 1.019-19.108 4.817-25.679 12.087-6.532 7.227-10.476 18.126-8.826 33.823 1.098 10.451 4.866 18.018 10.092 22.869 5.055 4.69 11.626 6.983 18.898 6.771l.706-.028.053-.002.053-.001c4.069.008 6.801-2.175 10.508-4.993 3.509-2.669 7.677-5.674 14.072-5.977l.626-.021h.056c6.576.06 12.499 2.417 16.996 7.073 4.476 4.635 7.4 11.399 8.31 20.057 1.727 16.436-12.94 30.123-31.815 32.106-31.723 3.335-75.601-15.95-80.928-66.635-3.283-31.242 6.46-55.83 24.254-73.322 17.741-17.439 43.331-27.681 71.573-30.65 17.985-1.89 41.986-1.967 68.295-2.306 26.367-.339 55.144-.941 82.875-3.855 4.524-.476 8.861-1.061 12.636-1.839 3.806-.785 6.904-1.739 9.027-2.891l.015-.008.014-.007c2.846-1.484 4.851-3.653 7.484-5.964 2.542-2.232 5.517-4.402 9.835-4.856Z"/></g><g filter="url(#m)"><path fill="#3BA7FF" d="m85.26 394.851-25.792 2.711c-3.03.319-6.976-.33-7.424-4.598l-.488-4.638c-.39-3.712.626-5.944 2.577-9.401l24.789-44.379c4.337-7.522 10.13-17.261 18.48-18.139 4.453-.468 6.497 2.319 6.868 5.845.539 5.133.336 12.721 1.311 21.999l2.763 26.287c.169 1.608.511 1.885 1.5 1.781 1.856-.195 2.764-.478 4.125-.621 1.608-.169 2.363 1.064 2.506 2.425.338 3.216 1.343 12.178 1.447 13.168.201 1.917-1.095 3.867-3.012 4.069-.619.065-1.677.113-2.171.165-.681.072-.918.785-.808 1.836l.761 7.237c.273 2.598 1.093 4.45 1.171 5.192.104.99-.388 1.667-1.807 2.441-1.95 1.081-13.757 2.384-19.572 2.995-1.793.189-3.28-.28-3.489-2.259-.143-1.361.209-2.774-.324-7.846l-.455-4.329c-.143-1.361-.729-2.175-2.956-1.941Zm.941-20.798c-.247-2.35-1.238-13.565-1.654-17.523-.475-4.515-1.103-6.325-2.958-6.13-1.546.162-2.647 1.591-3.48 3.18l-7.962 15.282c-1.931 3.642-3.416 6.175-3.247 7.783.156 1.484 1.39 1.917 3.555 1.69 5.195-.546 10.57-1.174 12.92-1.421 2.722-.286 3.008-1.129 2.826-2.861Z"/><path stroke="#142A3B" stroke-width="4" d="M97.193 314.418c2.703-.284 4.95.414 6.565 1.977 1.558 1.51 2.284 3.592 2.5 5.648.279 2.653.366 5.93.503 9.58.138 3.687.329 7.849.809 12.419l2.754 26.204a31.19 31.19 0 0 0 1.415-.226c.61-.11 1.254-.231 2.021-.312 1.422-.149 2.654.344 3.505 1.298.775.87 1.1 1.968 1.199 2.908.169 1.602.504 4.64.81 7.408.306 2.759.584 5.258.637 5.76.293 2.787-1.56 5.927-4.792 6.267-.343.036-.785.065-1.169.09l.731 6.949c.12 1.142.361 2.134.594 2.957.13.459.219.739.332 1.13.086.297.204.717.245 1.106.098.931-.094 1.86-.711 2.697-.547.741-1.33 1.274-2.127 1.709l-.002-.001c-.468.257-1.061.446-1.599.591-.585.157-1.281.309-2.042.456-1.523.294-3.405.583-5.38.853-3.956.542-8.388 1.023-11.297 1.329-1.064.112-2.367.075-3.51-.552-1.287-.705-2.017-1.953-2.178-3.487-.086-.822-.03-1.779-.026-2.747.003-1.085-.039-2.635-.298-5.099l-.455-4.33c-.008-.072-.02-.13-.029-.178a3.7 3.7 0 0 0-.73.018l-25.79 2.711c-1.687.177-3.843.118-5.728-.752-2.032-.938-3.594-2.759-3.895-5.625l-.488-4.639c-.457-4.349.819-7.04 2.823-10.593l24.786-44.371.007-.012.006-.012c2.158-3.742 4.78-8.223 7.96-11.875 3.168-3.638 7.13-6.737 12.044-7.254Zm-15.489 37.988c-.172.04-.403.156-.704.458-.371.374-.746.932-1.12 1.645l-7.96 15.277-.006.013c-.995 1.876-1.8 3.331-2.36 4.551-.523 1.14-.657 1.73-.667 1.995.066.013.155.028.271.037.268.02.624.012 1.087-.036 2.59-.272 5.228-.565 7.514-.821 2.28-.256 4.222-.476 5.406-.6.536-.056.873-.131 1.079-.196a5.34 5.34 0 0 0-.032-.467c-.125-1.192-.437-4.605-.767-8.184-.33-3.598-.68-7.376-.887-9.34-.24-2.288-.498-3.558-.795-4.216-.02-.047-.042-.085-.059-.116Z"/></g></g><defs><filter id="a" width="954.668" height="651.828" x="47.475" y="26.029" color-interpolation-filters="sRGB" filterUnits="userSpaceOnUse"><feFlood flood-opacity="0" result="BackgroundImageFix"/><feColorMatrix in="SourceAlpha" result="hardAlpha" values="0 0 0 0 0 0 0 0 0 0 0 0 0 0 0 0 0 0 127 0"/><feOffset dx="3.103" dy="7.756"/><feGaussianBlur stdDeviation="1.551"/><feColorMatrix values="0 0 0 0 0.0775 0 0 0 0 0.16275 0 0 0 0 0.2325 0 0 0 0.06 0"/><feBlend in2="BackgroundImageFix" mode="hard-light" result="effect1_dropShadow_10_2"/><feBlend in="SourceGraphic" in2="effect1_dropShadow_10_2" result="shape"/></filter><filter id="b" width="141.049" height="181.645" x="719.919" y="93.77" color-interpolation-filters="sRGB" filterUnits="userSpaceOnUse"><feFlood flood-opacity="0" result="BackgroundImageFix"/><feBlend in="SourceGraphic" in2="BackgroundImageFix" result="shape"/><feTurbulence baseFrequency="0.18418078124523163 0.18418078124523163" numOctaves="3" result="noise" seed="264" stitchTiles="stitch" type="fractalNoise"/><feComponentTransfer in="noise" result="coloredNoise1"><feFuncR intercept="-.5" slope="2" type="linear"/><feFuncG intercept="-.5" slope="2" type="linear"/><feFuncB intercept="-.5" slope="2" type="linear"/><feFuncA tableValues="0 0 0 0 0 0 0 0 0 0 0 0 0 0 0 0 1 1 1 1 1 1 1 1 1 1 1 1 1 1 1 1 1 0 0 0 0 0 0 0 0 0 0 0 0 0 0 0 0 0 0 0 0 0 0 0 0 0 0 0 0 0 0 0 0 0 0 0 0 0 0 0 0 0 0 0 0 0 0 0 0 0 0 0 0 0 0 0 0 0 0 0 0 0 0 0 0 0 0 0" type="discrete"/></feComponentTransfer><feComposite in="coloredNoise1" in2="shape" operator="in" result="noise1Clipped"/><feComponentTransfer in="noise1Clipped" result="color1"><feFuncA tableValues="0 0.08" type="table"/></feComponentTransfer><feMerge result="effect1_noise_10_2"><feMergeNode in="shape"/><feMergeNode in="color1"/></feMerge><feTurbulence baseFrequency="0.0625 0.0625" numOctaves="3" seed="9107" type="fractalNoise"/><feDisplacementMap width="100%" height="100%" in="effect1_noise_10_2" result="displacedImage" scale="2" xChannelSelector="R" yChannelSelector="G"/><feMerge result="effect2_texture_10_2"><feMergeNode in="displacedImage"/></feMerge></filter><filter id="c" width="131.309" height="260.746" x="619.385" y="25.029" color-interpolation-filters="sRGB" filterUnits="userSpaceOnUse"><feFlood flood-opacity="0" result="BackgroundImageFix"/><feBlend in="SourceGraphic" in2="BackgroundImageFix" result="shape"/><feTurbulence baseFrequency="0.18418078124523163 0.18418078124523163" numOctaves="3" result="noise" seed="264" stitchTiles="stitch" type="fractalNoise"/><feComponentTransfer in="noise" result="coloredNoise1"><feFuncR intercept="-.5" slope="2" type="linear"/><feFuncG intercept="-.5" slope="2" type="linear"/><feFuncB intercept="-.5" slope="2" type="linear"/><feFuncA tableValues="0 0 0 0 0 0 0 0 0 0 0 0 0 0 0 0 1 1 1 1 1 1 1 1 1 1 1 1 1 1 1 1 1 0 0 0 0 0 0 0 0 0 0 0 0 0 0 0 0 0 0 0 0 0 0 0 0 0 0 0 0 0 0 0 0 0 0 0 0 0 0 0 0 0 0 0 0 0 0 0 0 0 0 0 0 0 0 0 0 0 0 0 0 0 0 0 0 0 0 0" type="discrete"/></feComponentTransfer><feComposite in="coloredNoise1" in2="shape" operator="in" result="noise1Clipped"/><feComponentTransfer in="noise1Clipped" result="color1"><feFuncA tableValues="0 0.08" type="table"/></feComponentTransfer><feMerge result="effect1_noise_10_2"><feMergeNode in="shape"/><feMergeNode in="color1"/></feMerge><feTurbulence baseFrequency="0.0625 0.0625" numOctaves="3" seed="9107" type="fractalNoise"/><feDisplacementMap width="100%" height="100%" in="effect1_noise_10_2" result="displacedImage" scale="2" xChannelSelector="R" yChannelSelector="G"/><feMerge result="effect2_texture_10_2"><feMergeNode in="displacedImage"/></feMerge></filter><filter id="d" width="131.309" height="260.746" x="536.22" y="33.77" color-interpolation-filters="sRGB" filterUnits="userSpaceOnUse"><feFlood flood-opacity="0" result="BackgroundImageFix"/><feBlend in="SourceGraphic" in2="BackgroundImageFix" result="shape"/><feTurbulence baseFrequency="0.18418078124523163 0.18418078124523163" numOctaves="3" result="noise" seed="264" stitchTiles="stitch" type="fractalNoise"/><feComponentTransfer in="noise" result="coloredNoise1"><feFuncR intercept="-.5" slope="2" type="linear"/><feFuncG intercept="-.5" slope="2" type="linear"/><feFuncB intercept="-.5" slope="2" type="linear"/><feFuncA tableValues="0 0 0 0 0 0 0 0 0 0 0 0 0 0 0 0 1 1 1 1 1 1 1 1 1 1 1 1 1 1 1 1 1 0 0 0 0 0 0 0 0 0 0 0 0 0 0 0 0 0 0 0 0 0 0 0 0 0 0 0 0 0 0 0 0 0 0 0 0 0 0 0 0 0 0 0 0 0 0 0 0 0 0 0 0 0 0 0 0 0 0 0 0 0 0 0 0 0 0 0" type="discrete"/></feComponentTransfer><feComposite in="coloredNoise1" in2="shape" operator="in" result="noise1Clipped"/><feComponentTransfer in="noise1Clipped" result="color1"><feFuncA tableValues="0 0.08" type="table"/></feComponentTransfer><feMerge result="effect1_noise_10_2"><feMergeNode in="shape"/><feMergeNode in="color1"/></feMerge><feTurbulence baseFrequency="0.0625 0.0625" numOctaves="3" seed="9107" type="fractalNoise"/><feDisplacementMap width="100%" height="100%" in="effect1_noise_10_2" result="displacedImage" scale="2" xChannelSelector="R" yChannelSelector="G"/><feMerge result="effect2_texture_10_2"><feMergeNode in="displacedImage"/></feMerge></filter><filter id="e" width="120.372" height="250.282" x="464.55" y="53.89" color-interpolation-filters="sRGB" filterUnits="userSpaceOnUse"><feFlood flood-opacity="0" result="BackgroundImageFix"/><feBlend in="SourceGraphic" in2="BackgroundImageFix" result="shape"/><feTurbulence baseFrequency="0.18418078124523163 0.18418078124523163" numOctaves="3" result="noise" seed="264" stitchTiles="stitch" type="fractalNoise"/><feComponentTransfer in="noise" result="coloredNoise1"><feFuncR intercept="-.5" slope="2" type="linear"/><feFuncG intercept="-.5" slope="2" type="linear"/><feFuncB intercept="-.5" slope="2" type="linear"/><feFuncA tableValues="0 0 0 0 0 0 0 0 0 0 0 0 0 0 0 0 1 1 1 1 1 1 1 1 1 1 1 1 1 1 1 1 1 0 0 0 0 0 0 0 0 0 0 0 0 0 0 0 0 0 0 0 0 0 0 0 0 0 0 0 0 0 0 0 0 0 0 0 0 0 0 0 0 0 0 0 0 0 0 0 0 0 0 0 0 0 0 0 0 0 0 0 0 0 0 0 0 0 0 0" type="discrete"/></feComponentTransfer><feComposite in="coloredNoise1" in2="shape" operator="in" result="noise1Clipped"/><feComponentTransfer in="noise1Clipped" result="color1"><feFuncA tableValues="0 0.08" type="table"/></feComponentTransfer><feMerge result="effect1_noise_10_2"><feMergeNode in="shape"/><feMergeNode in="color1"/></feMerge><feTurbulence baseFrequency="0.0625 0.0625" numOctaves="3" seed="9107" type="fractalNoise"/><feDisplacementMap width="100%" height="100%" in="effect1_noise_10_2" result="displacedImage" scale="2" xChannelSelector="R" yChannelSelector="G"/><feMerge result="effect2_texture_10_2"><feMergeNode in="displacedImage"/></feMerge></filter><filter id="f" width="242.28" height="261.273" x="266.242" y="62.312" color-interpolation-filters="sRGB" filterUnits="userSpaceOnUse"><feFlood flood-opacity="0" result="BackgroundImageFix"/><feBlend in="SourceGraphic" in2="BackgroundImageFix" result="shape"/><feTurbulence baseFrequency="0.18418078124523163 0.18418078124523163" numOctaves="3" result="noise" seed="264" stitchTiles="stitch" type="fractalNoise"/><feComponentTransfer in="noise" result="coloredNoise1"><feFuncR intercept="-.5" slope="2" type="linear"/><feFuncG intercept="-.5" slope="2" type="linear"/><feFuncB intercept="-.5" slope="2" type="linear"/><feFuncA tableValues="0 0 0 0 0 0 0 0 0 0 0 0 0 0 0 0 1 1 1 1 1 1 1 1 1 1 1 1 1 1 1 1 1 0 0 0 0 0 0 0 0 0 0 0 0 0 0 0 0 0 0 0 0 0 0 0 0 0 0 0 0 0 0 0 0 0 0 0 0 0 0 0 0 0 0 0 0 0 0 0 0 0 0 0 0 0 0 0 0 0 0 0 0 0 0 0 0 0 0 0" type="discrete"/></feComponentTransfer><feComposite in="coloredNoise1" in2="shape" operator="in" result="noise1Clipped"/><feComponentTransfer in="noise1Clipped" result="color1"><feFuncA tableValues="0 0.08" type="table"/></feComponentTransfer><feMerge result="effect1_noise_10_2"><feMergeNode in="shape"/><feMergeNode in="color1"/></feMerge><feTurbulence baseFrequency="0.0625 0.0625" numOctaves="3" seed="9107" type="fractalNoise"/><feDisplacementMap width="100%" height="100%" in="effect1_noise_10_2" result="displacedImage" scale="2" xChannelSelector="R" yChannelSelector="G"/><feMerge result="effect2_texture_10_2"><feMergeNode in="displacedImage"/></feMerge></filter><filter id="g" width="205.868" height="264.153" x="96.04" y="75.998" color-interpolation-filters="sRGB" filterUnits="userSpaceOnUse"><feFlood flood-opacity="0" result="BackgroundImageFix"/><feBlend in="SourceGraphic" in2="BackgroundImageFix" result="shape"/><feTurbulence baseFrequency="0.18418078124523163 0.18418078124523163" numOctaves="3" result="noise" seed="264" stitchTiles="stitch" type="fractalNoise"/><feComponentTransfer in="noise" result="coloredNoise1"><feFuncR intercept="-.5" slope="2" type="linear"/><feFuncG intercept="-.5" slope="2" type="linear"/><feFuncB intercept="-.5" slope="2" type="linear"/><feFuncA tableValues="0 0 0 0 0 0 0 0 0 0 0 0 0 0 0 0 1 1 1 1 1 1 1 1 1 1 1 1 1 1 1 1 1 0 0 0 0 0 0 0 0 0 0 0 0 0 0 0 0 0 0 0 0 0 0 0 0 0 0 0 0 0 0 0 0 0 0 0 0 0 0 0 0 0 0 0 0 0 0 0 0 0 0 0 0 0 0 0 0 0 0 0 0 0 0 0 0 0 0 0" type="discrete"/></feComponentTransfer><feComposite in="coloredNoise1" in2="shape" operator="in" result="noise1Clipped"/><feComponentTransfer in="noise1Clipped" result="color1"><feFuncA tableValues="0 0.08" type="table"/></feComponentTransfer><feMerge result="effect1_noise_10_2"><feMergeNode in="shape"/><feMergeNode in="color1"/></feMerge><feTurbulence baseFrequency="0.0625 0.0625" numOctaves="3" seed="9107" type="fractalNoise"/><feDisplacementMap width="100%" height="100%" in="effect1_noise_10_2" result="displacedImage" scale="2" xChannelSelector="R" yChannelSelector="G"/><feMerge result="effect2_texture_10_2"><feMergeNode in="displacedImage"/></feMerge></filter><filter id="h" width="141.049" height="181.645" x="855.888" y="353.642" color-interpolation-filters="sRGB" filterUnits="userSpaceOnUse"><feFlood flood-opacity="0" result="BackgroundImageFix"/><feBlend in="SourceGraphic" in2="BackgroundImageFix" result="shape"/><feTurbulence baseFrequency="0.18418078124523163 0.18418078124523163" numOctaves="3" result="noise" seed="264" stitchTiles="stitch" type="fractalNoise"/><feComponentTransfer in="noise" result="coloredNoise1"><feFuncR intercept="-.5" slope="2" type="linear"/><feFuncG intercept="-.5" slope="2" type="linear"/><feFuncB intercept="-.5" slope="2" type="linear"/><feFuncA tableValues="0 0 0 0 0 0 0 0 0 0 0 0 0 0 0 0 1 1 1 1 1 1 1 1 1 1 1 1 1 1 1 1 1 0 0 0 0 0 0 0 0 0 0 0 0 0 0 0 0 0 0 0 0 0 0 0 0 0 0 0 0 0 0 0 0 0 0 0 0 0 0 0 0 0 0 0 0 0 0 0 0 0 0 0 0 0 0 0 0 0 0 0 0 0 0 0 0 0 0 0" type="discrete"/></feComponentTransfer><feComposite in="coloredNoise1" in2="shape" operator="in" result="noise1Clipped"/><feComponentTransfer in="noise1Clipped" result="color1"><feFuncA tableValues="0 0.08" type="table"/></feComponentTransfer><feMerge result="effect1_noise_10_2"><feMergeNode in="shape"/><feMergeNode in="color1"/></feMerge><feTurbulence baseFrequency="0.0625 0.0625" numOctaves="3" seed="9107" type="fractalNoise"/><feDisplacementMap width="100%" height="100%" in="effect1_noise_10_2" result="displacedImage" scale="2" xChannelSelector="R" yChannelSelector="G"/><feMerge result="effect2_texture_10_2"><feMergeNode in="displacedImage"/></feMerge></filter><filter id="i" width="242.28" height="261.273" x="649.02" y="296.243" color-interpolation-filters="sRGB" filterUnits="userSpaceOnUse"><feFlood flood-opacity="0" result="BackgroundImageFix"/><feBlend in="SourceGraphic" in2="BackgroundImageFix" result="shape"/><feTurbulence baseFrequency="0.18418078124523163 0.18418078124523163" numOctaves="3" result="noise" seed="264" stitchTiles="stitch" type="fractalNoise"/><feComponentTransfer in="noise" result="coloredNoise1"><feFuncR intercept="-.5" slope="2" type="linear"/><feFuncG intercept="-.5" slope="2" type="linear"/><feFuncB intercept="-.5" slope="2" type="linear"/><feFuncA tableValues="0 0 0 0 0 0 0 0 0 0 0 0 0 0 0 0 1 1 1 1 1 1 1 1 1 1 1 1 1 1 1 1 1 0 0 0 0 0 0 0 0 0 0 0 0 0 0 0 0 0 0 0 0 0 0 0 0 0 0 0 0 0 0 0 0 0 0 0 0 0 0 0 0 0 0 0 0 0 0 0 0 0 0 0 0 0 0 0 0 0 0 0 0 0 0 0 0 0 0 0" type="discrete"/></feComponentTransfer><feComposite in="coloredNoise1" in2="shape" operator="in" result="noise1Clipped"/><feComponentTransfer in="noise1Clipped" result="color1"><feFuncA tableValues="0 0.08" type="table"/></feComponentTransfer><feMerge result="effect1_noise_10_2"><feMergeNode in="shape"/><feMergeNode in="color1"/></feMerge><feTurbulence baseFrequency="0.0625 0.0625" numOctaves="3" seed="9107" type="fractalNoise"/><feDisplacementMap width="100%" height="100%" in="effect1_noise_10_2" result="displacedImage" scale="2" xChannelSelector="R" yChannelSelector="G"/><feMerge result="effect2_texture_10_2"><feMergeNode in="displacedImage"/></feMerge></filter><filter id="j" width="131.309" height="260.745" x="564.473" y="304.964" color-interpolation-filters="sRGB" filterUnits="userSpaceOnUse"><feFlood flood-opacity="0" result="BackgroundImageFix"/><feBlend in="SourceGraphic" in2="BackgroundImageFix" result="shape"/><feTurbulence baseFrequency="0.18418078124523163 0.18418078124523163" numOctaves="3" result="noise" seed="264" stitchTiles="stitch" type="fractalNoise"/><feComponentTransfer in="noise" result="coloredNoise1"><feFuncR intercept="-.5" slope="2" type="linear"/><feFuncG intercept="-.5" slope="2" type="linear"/><feFuncB intercept="-.5" slope="2" type="linear"/><feFuncA tableValues="0 0 0 0 0 0 0 0 0 0 0 0 0 0 0 0 1 1 1 1 1 1 1 1 1 1 1 1 1 1 1 1 1 0 0 0 0 0 0 0 0 0 0 0 0 0 0 0 0 0 0 0 0 0 0 0 0 0 0 0 0 0 0 0 0 0 0 0 0 0 0 0 0 0 0 0 0 0 0 0 0 0 0 0 0 0 0 0 0 0 0 0 0 0 0 0 0 0 0 0" type="discrete"/></feComponentTransfer><feComposite in="coloredNoise1" in2="shape" operator="in" result="noise1Clipped"/><feComponentTransfer in="noise1Clipped" result="color1"><feFuncA tableValues="0 0.08" type="table"/></feComponentTransfer><feMerge result="effect1_noise_10_2"><feMergeNode in="shape"/><feMergeNode in="color1"/></feMerge><feTurbulence baseFrequency="0.0625 0.0625" numOctaves="3" seed="9107" type="fractalNoise"/><feDisplacementMap width="100%" height="100%" in="effect1_noise_10_2" result="displacedImage" scale="2" xChannelSelector="R" yChannelSelector="G"/><feMerge result="effect2_texture_10_2"><feMergeNode in="displacedImage"/></feMerge></filter><filter id="k" width="182.517" height="179.742" x="419.74" y="399.988" color-interpolation-filters="sRGB" filterUnits="userSpaceOnUse"><feFlood flood-opacity="0" result="BackgroundImageFix"/><feBlend in="SourceGraphic" in2="BackgroundImageFix" result="shape"/><feTurbulence baseFrequency="0.18418078124523163 0.18418078124523163" numOctaves="3" result="noise" seed="264" stitchTiles="stitch" type="fractalNoise"/><feComponentTransfer in="noise" result="coloredNoise1"><feFuncR intercept="-.5" slope="2" type="linear"/><feFuncG intercept="-.5" slope="2" type="linear"/><feFuncB intercept="-.5" slope="2" type="linear"/><feFuncA tableValues="0 0 0 0 0 0 0 0 0 0 0 0 0 0 0 0 1 1 1 1 1 1 1 1 1 1 1 1 1 1 1 1 1 0 0 0 0 0 0 0 0 0 0 0 0 0 0 0 0 0 0 0 0 0 0 0 0 0 0 0 0 0 0 0 0 0 0 0 0 0 0 0 0 0 0 0 0 0 0 0 0 0 0 0 0 0 0 0 0 0 0 0 0 0 0 0 0 0 0 0" type="discrete"/></feComponentTransfer><feComposite in="coloredNoise1" in2="shape" operator="in" result="noise1Clipped"/><feComponentTransfer in="noise1Clipped" result="color1"><feFuncA tableValues="0 0.08" type="table"/></feComponentTransfer><feMerge result="effect1_noise_10_2"><feMergeNode in="shape"/><feMergeNode in="color1"/></feMerge><feTurbulence baseFrequency="0.0625 0.0625" numOctaves="3" seed="9107" type="fractalNoise"/><feDisplacementMap width="100%" height="100%" in="effect1_noise_10_2" result="displacedImage" scale="2" xChannelSelector="R" yChannelSelector="G"/><feMerge result="effect2_texture_10_2"><feMergeNode in="displacedImage"/></feMerge></filter><filter id="l" width="314.393" height="343.863" x="126.049" y="324.136" color-interpolation-filters="sRGB" filterUnits="userSpaceOnUse"><feFlood flood-opacity="0" result="BackgroundImageFix"/><feBlend in="SourceGraphic" in2="BackgroundImageFix" result="shape"/><feTurbulence baseFrequency="0.18418078124523163 0.18418078124523163" numOctaves="3" result="noise" seed="264" stitchTiles="stitch" type="fractalNoise"/><feComponentTransfer in="noise" result="coloredNoise1"><feFuncR intercept="-.5" slope="2" type="linear"/><feFuncG intercept="-.5" slope="2" type="linear"/><feFuncB intercept="-.5" slope="2" type="linear"/><feFuncA tableValues="0 0 0 0 0 0 0 0 0 0 0 0 0 0 0 0 1 1 1 1 1 1 1 1 1 1 1 1 1 1 1 1 1 0 0 0 0 0 0 0 0 0 0 0 0 0 0 0 0 0 0 0 0 0 0 0 0 0 0 0 0 0 0 0 0 0 0 0 0 0 0 0 0 0 0 0 0 0 0 0 0 0 0 0 0 0 0 0 0 0 0 0 0 0 0 0 0 0 0 0" type="discrete"/></feComponentTransfer><feComposite in="coloredNoise1" in2="shape" operator="in" result="noise1Clipped"/><feComponentTransfer in="noise1Clipped" result="color1"><feFuncA tableValues="0 0.08" type="table"/></feComponentTransfer><feMerge result="effect1_noise_10_2"><feMergeNode in="shape"/><feMergeNode in="color1"/></feMerge><feTurbulence baseFrequency="0.0625 0.0625" numOctaves="3" seed="9107" type="fractalNoise"/><feDisplacementMap width="100%" height="100%" in="effect1_noise_10_2" result="displacedImage" scale="2" xChannelSelector="R" yChannelSelector="G"/><feMerge result="effect2_texture_10_2"><feMergeNode in="displacedImage"/></feMerge></filter><filter id="m" width="76.465" height="104.908" x="46.475" y="311.357" color-interpolation-filters="sRGB" filterUnits="userSpaceOnUse"><feFlood flood-opacity="0" result="BackgroundImageFix"/><feBlend in="SourceGraphic" in2="BackgroundImageFix" result="shape"/><feTurbulence baseFrequency="0.18418078124523163 0.18418078124523163" numOctaves="3" result="noise" seed="264" stitchTiles="stitch" type="fractalNoise"/><feComponentTransfer in="noise" result="coloredNoise1"><feFuncR intercept="-.5" slope="2" type="linear"/><feFuncG intercept="-.5" slope="2" type="linear"/><feFuncB intercept="-.5" slope="2" type="linear"/><feFuncA tableValues="0 0 0 0 0 0 0 0 0 0 0 0 0 0 0 0 1 1 1 1 1 1 1 1 1 1 1 1 1 1 1 1 1 0 0 0 0 0 0 0 0 0 0 0 0 0 0 0 0 0 0 0 0 0 0 0 0 0 0 0 0 0 0 0 0 0 0 0 0 0 0 0 0 0 0 0 0 0 0 0 0 0 0 0 0 0 0 0 0 0 0 0 0 0 0 0 0 0 0 0" type="discrete"/></feComponentTransfer><feComposite in="coloredNoise1" in2="shape" operator="in" result="noise1Clipped"/><feComponentTransfer in="noise1Clipped" result="color1"><feFuncA tableValues="0 0.08" type="table"/></feComponentTransfer><feMerge result="effect1_noise_10_2"><feMergeNode in="shape"/><feMergeNode in="color1"/></feMerge><feTurbulence baseFrequency="0.0625 0.0625" numOctaves="3" seed="9107" type="fractalNoise"/><feDisplacementMap width="100%" height="100%" in="effect1_noise_10_2" result="displacedImage" scale="2" xChannelSelector="R" yChannelSelector="G"/><feMerge result="effect2_texture_10_2"><feMergeNode in="displacedImage"/></feMerge></filter></defs></svg>