<svg width="1025" height="684" viewBox="0 0 1025 684" fill="none" xmlns="http://www.w3.org/2000/svg">
<g filter="url(#filter0_n_147_698)">
<path d="M754.102 225.904C766.017 243.412 777.455 248.115 788.451 246.96C802.882 245.443 808.761 235.271 807.895 227.025C806.739 216.029 799.479 211.407 776.756 208.411C751.366 204.826 728.301 191.964 725.213 162.585C722.36 135.44 740.368 106.797 774.901 103.167C788.817 101.704 799.378 106.327 804.188 105.821C809.514 105.261 813.06 99.3301 818.042 98.8064C828.179 97.741 841.702 120.638 843.021 133.18C844.176 144.176 838.632 149.275 832.963 149.871C826.778 150.521 822.953 148.838 818.93 145.266C815.856 142.462 811.462 137.018 808.027 134.079C802.81 129.069 793.958 125.83 785.54 126.715C774.372 127.889 767.517 135.384 768.51 144.833C769.684 156 777.849 159.311 806.241 165.012C833.873 170.098 852.968 183.204 855.677 208.975C858.801 238.697 836.489 266.056 799.894 269.902C787.353 271.22 777.289 269.672 770.787 268.966C762.053 268.494 755.922 269.66 749.647 266.15C742.115 262.252 731.403 247.918 729.687 231.597C728.874 223.865 731.028 217.907 736.182 217.365C743.913 216.553 749.329 220.152 754.102 225.904Z" fill="#3BA7FF"/>
<path d="M774.692 101.178C781.921 100.418 788.253 101.243 793.318 102.168C794.583 102.399 795.773 102.637 796.871 102.857C797.975 103.079 798.976 103.28 799.894 103.446C801.784 103.786 803.091 103.926 803.979 103.832C806.008 103.619 807.793 102.374 810.05 100.695C812.099 99.1705 814.69 97.148 817.833 96.8175C821.147 96.4692 824.42 98.0873 827.293 100.409C830.213 102.769 833.024 106.095 835.498 109.774C840.419 117.094 844.305 126.265 845.01 132.971C845.625 138.828 844.479 143.375 842.177 146.589C839.873 149.808 836.537 151.506 833.172 151.859C829.849 152.209 827.039 151.942 824.471 151.038C821.914 150.137 819.731 148.652 817.602 146.762L817.592 146.753L817.582 146.743C815.963 145.266 814.019 143.117 812.142 141.077C810.214 138.981 808.338 136.976 806.727 135.598L806.683 135.561L806.641 135.522C801.858 130.928 793.593 127.88 785.749 128.704C780.557 129.25 776.529 131.245 773.928 134.035C771.344 136.805 770.062 140.464 770.499 144.624C770.768 147.18 771.418 149.132 772.548 150.752C773.683 152.378 775.409 153.825 778.08 155.192C783.525 157.979 792.377 160.188 806.634 163.051L806.633 163.051C820.629 165.631 832.668 170.274 841.585 177.7C850.563 185.175 856.258 195.376 857.666 208.765C860.922 239.746 837.63 267.946 800.103 271.891C787.344 273.232 777.068 271.662 770.632 270.96C768.52 270.847 766.558 270.833 764.669 270.821C762.783 270.809 760.943 270.801 759.174 270.694C755.597 270.477 752.166 269.851 748.67 267.896L748.67 267.895C744.48 265.705 739.709 260.839 735.792 254.595C731.826 248.276 728.593 240.323 727.698 231.806C727.271 227.746 727.596 223.947 728.859 220.997C730.154 217.972 732.513 215.74 735.972 215.376C744.353 214.495 750.257 218.342 755.168 224.067L755.641 224.627L755.702 224.7L755.756 224.779C761.6 233.367 767.228 238.664 772.602 241.688C777.941 244.691 783.129 245.508 788.242 244.97C801.645 243.561 806.649 234.313 805.905 227.234C805.638 224.686 805.029 222.631 804.015 220.916C803.008 219.213 801.537 217.735 799.378 216.429C794.965 213.759 787.839 211.889 776.495 210.393L776.486 210.392L776.476 210.391C763.563 208.567 751.076 204.366 741.384 196.743C731.639 189.077 724.825 178.027 723.223 162.794C720.265 134.646 738.967 104.933 774.692 101.178Z" stroke="#142A3B" stroke-width="4"/>
</g>
<g filter="url(#filter1_n_147_698)">
<path d="M665.422 177.207L660.618 131.507C656.158 89.0706 652.724 76.23 644.206 74.5197C638.374 73.5693 635.58 75.0789 632.261 74.9066C627.876 74.499 624.938 71.3337 624.486 67.0386C623.782 60.3381 626.721 56.9025 633.865 52.1564C649.212 41.1634 678.954 31.6104 692.87 30.1477C698.196 29.5879 700.764 30.8814 701.414 37.0664C703.238 54.4189 703.785 81.1118 708.408 125.094L713.121 169.936C717.743 213.918 721.176 236.66 724.927 244.256C726.753 248.407 729.321 249.7 732.16 250.27C735.705 250.94 738.092 250.516 740.777 251.276C743.119 252.072 745.226 253.935 745.623 257.714C746.634 267.336 737.184 274.93 699.558 278.884C662.62 282.767 647.845 281.019 646.725 270.367C646.22 265.557 648.146 262.401 651.302 261.027C654.151 260.033 657.587 259.672 660.264 258.696C663.284 257.683 666.621 254.727 667.68 249.926C669.915 239.79 669.466 215.692 665.422 177.207Z" fill="#3BA7FF"/>
<path d="M692.661 28.1587C695.399 27.8708 698.048 27.965 700.084 29.4691C702.165 31.0074 703.06 33.5989 703.402 36.857C704.32 45.5848 704.917 56.6658 705.857 70.963C706.799 85.2885 708.089 102.929 710.397 124.885L715.11 169.726C717.421 191.71 719.43 208.35 721.327 220.43C723.239 232.609 725.001 239.889 726.72 243.37L726.74 243.41L726.758 243.451C727.558 245.27 728.46 246.332 729.359 247.003C730.263 247.676 731.298 248.055 732.538 248.306C734.154 248.611 735.501 248.669 736.896 248.742C738.097 248.806 739.374 248.881 740.734 249.199L741.322 249.351L741.372 249.366L741.421 249.382C742.869 249.874 744.316 250.722 745.463 252.092C746.618 253.471 747.377 255.269 747.612 257.505C747.904 260.287 747.441 263.027 745.839 265.586C744.258 268.11 741.671 270.297 738 272.2C730.709 275.977 718.622 278.892 699.767 280.874C681.31 282.813 668.145 283.38 659.41 282.054C655.036 281.389 651.553 280.222 649.053 278.334C646.466 276.379 645.07 273.758 644.736 270.576C644.451 267.865 644.837 265.463 645.867 263.485C646.904 261.493 648.532 260.052 650.504 259.193L650.573 259.163L650.643 259.139C652.204 258.594 653.901 258.231 655.423 257.9C657.001 257.558 658.391 257.25 659.578 256.817L659.603 256.808L659.628 256.8C662.012 256.001 664.826 253.581 665.726 249.495C666.787 244.685 667.244 236.338 666.906 224.253C666.57 212.219 665.452 196.628 663.433 177.416L658.629 131.716C656.397 110.475 654.436 96.8248 652.01 88.2881C649.568 79.6958 646.889 77.1123 643.842 76.4873C641.191 76.0602 639.249 76.1856 637.547 76.4047C635.924 76.6135 634.056 77.003 632.157 76.9044L632.117 76.9017L632.076 76.8982C626.671 76.3957 623.041 72.419 622.497 67.2479C622.106 63.5241 622.724 60.4987 624.573 57.7484C626.342 55.1186 629.138 52.8981 632.721 50.5153C640.615 44.866 652.078 39.6612 663.234 35.6939C674.4 31.7225 685.482 28.9132 692.661 28.1587Z" stroke="#142A3B" stroke-width="4"/>
</g>
<g filter="url(#filter2_n_147_698)">
<path d="M582.256 185.948L577.453 140.248C572.993 97.8118 569.559 84.9712 561.041 83.2609C555.209 82.3105 552.415 83.8201 549.096 83.6478C544.711 83.2402 541.773 80.075 541.321 75.7798C540.617 69.0793 543.556 65.6437 550.7 60.8977C566.047 49.9046 595.789 40.3516 609.705 38.8889C615.031 38.3291 617.599 39.6226 618.249 45.8076C620.073 63.1601 620.62 89.853 625.243 133.835L629.956 178.677C634.578 222.659 638.011 245.401 641.762 252.997C643.588 257.148 646.156 258.442 648.995 259.012C652.54 259.681 654.927 259.257 657.612 260.017C659.954 260.813 662.061 262.676 662.458 266.456C663.469 276.077 654.019 283.671 616.393 287.625C579.455 291.508 564.68 289.76 563.56 279.108C563.055 274.298 564.981 271.142 568.137 269.768C570.986 268.774 574.422 268.413 577.099 267.437C580.119 266.425 583.456 263.468 584.515 258.667C586.75 248.531 586.301 224.433 582.256 185.948Z" fill="#3BA7FF"/>
<path d="M609.496 36.8999C612.234 36.6121 614.883 36.7062 616.919 38.2103C619 39.7486 619.895 42.3401 620.237 45.5982C621.155 54.326 621.752 65.407 622.692 79.7042C623.634 94.0297 624.924 111.671 627.232 133.627L631.945 178.467C634.256 200.452 636.265 217.091 638.162 229.172C640.074 241.351 641.836 248.631 643.555 252.111L643.575 252.152L643.593 252.192C644.393 254.011 645.295 255.074 646.194 255.744C647.097 256.417 648.133 256.797 649.372 257.047C650.989 257.352 652.336 257.41 653.731 257.483C654.932 257.547 656.209 257.622 657.569 257.94L658.157 258.093L658.207 258.107L658.256 258.123C659.704 258.616 661.151 259.463 662.298 260.833C663.453 262.212 664.212 264.011 664.447 266.246C664.739 269.028 664.276 271.768 662.674 274.328C661.093 276.851 658.506 279.038 654.835 280.941C647.544 284.718 635.457 287.633 616.602 289.615C598.144 291.555 584.98 292.121 576.245 290.795C571.871 290.131 568.388 288.963 565.888 287.075C563.301 285.121 561.905 282.499 561.571 279.317C561.286 276.606 561.672 274.204 562.702 272.226C563.739 270.234 565.367 268.793 567.339 267.934L567.408 267.905L567.478 267.881C569.039 267.336 570.736 266.972 572.258 266.642C573.836 266.299 575.226 265.991 576.413 265.558L576.438 265.549L576.463 265.541C578.847 264.742 581.661 262.322 582.561 258.236C583.622 253.426 584.079 245.079 583.741 232.994C583.405 220.961 582.287 205.369 580.268 186.157L575.464 140.457C573.232 119.216 571.271 105.566 568.845 97.0293C566.403 88.437 563.724 85.8535 560.677 85.2286C558.026 84.8014 556.084 84.9268 554.382 85.1459C552.759 85.3547 550.892 85.744 548.993 85.6455L548.952 85.643L548.911 85.6394C543.506 85.1369 539.876 81.1602 539.332 75.9891C538.941 72.2653 539.559 69.2399 541.408 66.4896C543.177 63.8598 545.973 61.6393 549.556 59.2565C557.45 53.6072 568.913 48.4024 580.069 44.4351C591.235 40.4637 602.317 37.6544 609.496 36.8999Z" stroke="#142A3B" stroke-width="4"/>
</g>
<g filter="url(#filter3_n_147_698)">
<path d="M475.634 89.4581C473.792 71.9338 494.708 61.0502 513.092 59.118C528.898 57.4567 539.937 64.9816 541.237 77.3517C542.971 93.8451 524.694 106.709 503.734 108.912C489.646 110.393 477.096 103.374 475.634 89.4581ZM500.56 225.802L499.422 214.978C496.497 187.145 494.582 175.535 488.433 173.228C483.388 171.5 479.029 173 475.811 172.123C472.23 171.109 470.033 168.387 469.654 164.779C468.859 157.22 472.522 154.056 485.327 146.978C498.937 139.294 525.297 130.617 535.777 129.516C541.103 128.956 542.866 130.855 543.443 136.353C544.816 149.41 544.499 151.354 549.573 199.632L551.614 219.046C553.347 235.539 555.668 252.666 558.281 259.34C559.799 263.87 562.457 266.022 565.296 266.593C568.877 267.606 571.246 267.009 574.311 268.077C577.051 269.352 579.347 271.369 579.853 276.18C581.045 287.519 566.965 294.036 532.775 297.63C499.273 301.151 483.413 298.996 482.203 287.485C481.806 283.706 482.666 280.315 485.442 278.633C488.2 276.78 491.636 276.419 494.413 274.738C497.397 273.382 500.39 270.462 501.367 266.537C503.503 257.107 502.167 241.092 500.56 225.802Z" fill="#3BA7FF"/>
<path d="M535.568 127.527C538.397 127.23 540.92 127.5 542.75 129.196C544.505 130.821 545.137 133.335 545.432 136.144C546.121 142.693 546.388 146.485 547.112 154.608C547.837 162.747 549.026 175.291 551.562 199.423L553.602 218.837C554.467 227.068 555.477 235.436 556.593 242.566C557.649 249.31 558.776 254.781 559.915 257.998L560.143 258.611L560.161 258.657L560.177 258.704C561.517 262.703 563.693 264.231 565.69 264.632L565.766 264.647L565.841 264.668C567.416 265.113 568.717 265.208 570.153 265.32C571.577 265.431 573.168 265.561 574.969 266.188L575.064 266.221L575.155 266.263C576.696 266.98 578.259 267.975 579.501 269.578C580.751 271.191 581.558 273.27 581.841 275.97C582.19 279.281 581.412 282.322 579.411 285.005C577.451 287.634 574.408 289.802 570.414 291.628C562.455 295.268 550.11 297.819 532.984 299.619C516.226 301.38 503.63 301.756 495.016 300.161C490.697 299.361 487.188 298.035 484.645 295.976C482.036 293.863 480.57 291.077 480.214 287.694C479.789 283.652 480.625 279.27 484.326 276.974L484.633 276.774C486.174 275.804 487.833 275.223 489.271 274.73C490.883 274.176 492.21 273.733 493.376 273.026L493.478 272.966L493.585 272.917C496.105 271.772 498.605 269.302 499.418 266.083C500.423 261.634 500.635 255.492 500.368 248.442C500.103 241.42 499.374 233.65 498.571 226.011L497.434 215.187C495.968 201.239 494.769 191.518 493.193 185.001C491.582 178.341 489.758 175.875 487.754 175.11C485.584 174.373 483.53 174.308 481.484 174.356C479.58 174.4 477.258 174.59 475.284 174.052L475.275 174.05L475.266 174.047C470.876 172.805 468.127 169.387 467.665 164.988C467.449 162.929 467.521 161.036 468.048 159.241C468.58 157.43 469.538 155.84 470.921 154.342C473.26 151.805 476.932 149.417 482.068 146.508L484.36 145.227C491.32 141.3 501.437 137.167 511.081 133.885C520.705 130.61 530.092 128.103 535.568 127.527ZM512.883 57.129C521.132 56.262 528.333 57.7718 533.703 61.3017C539.108 64.8549 542.515 70.3692 543.227 77.143C544.186 86.2687 539.57 94.2194 532.242 100.055C524.923 105.884 514.736 109.767 503.944 110.902C496.53 111.681 489.391 110.238 483.858 106.635C478.284 103.005 474.441 97.238 473.645 89.6675C472.622 79.9317 477.979 72.2069 485.625 66.8076C493.257 61.418 503.426 58.1229 512.883 57.129Z" stroke="#142A3B" stroke-width="4"/>
</g>
<g filter="url(#filter4_n_147_698)">
<path d="M311.068 214.451L305.471 161.191C301.57 124.081 299.745 113.33 293.479 111.556C287.503 109.232 281.399 112.305 277.303 111.346C274.12 110.812 271.733 107.936 271.3 103.813C270.758 98.6584 274.059 95.3585 281.393 90.7662C299.281 79.1587 325.975 68.71 338.173 67.4279C345.217 66.6875 348.978 69.4189 349.737 76.6348C350.929 87.974 350.122 98.481 354.294 138.168L360.036 192.803C360.433 196.583 361.572 200.805 365.352 200.408C367.757 200.155 372.224 196.385 376.502 192.462L389.425 181.55C397.483 173.928 399.418 172.509 399.093 169.416C398.931 167.87 398.018 167.445 396.914 166.866C396.173 166.423 394.744 166.052 393.641 165.473C391.146 164.867 389.229 163.158 388.85 159.55C388.001 151.475 395.824 144.92 425.031 141.851C453.723 138.835 466.508 141.486 467.844 154.2C468.332 158.839 465.284 161.244 461.577 162.328C458.059 163.566 453.33 163.195 449.414 163.954C444.64 164.803 440.408 167.506 431.807 176.574L413.882 194.439C410.021 199.014 410.075 199.529 415.364 205.227L463.217 255.609C471.444 264.471 477.881 269.527 482.537 272.512C485.865 274.42 489.291 275.623 492.646 276.139C499.147 276.846 502.646 278.736 503.441 286.295C504.145 292.996 500.491 297.896 488.465 299.16L456.681 302.501C443.28 303.909 436.67 305.473 432.945 303.085C429.771 300.987 424.184 294.105 409.547 278.794L378.076 245.45C374.378 241.67 372.805 239.924 370.4 240.177C368.166 240.412 366.321 242.69 366.953 248.703C368.868 266.915 370.566 276.464 372.672 281.627C374.118 285.47 376.361 286.972 379.028 287.56C382.401 288.248 384.634 288.013 387.473 288.583C390.177 289.515 392.835 291.667 393.268 295.791C394.623 308.676 377.939 313.556 343.749 317.15C312.824 320.4 296.467 318.472 295.347 307.82C294.968 304.212 295.746 301.698 298.043 300.414C300.819 298.733 304.925 298.128 307.855 296.256C311.264 293.987 314.167 290.208 315.136 284.548C316.864 276.202 314.933 251.218 311.068 214.451Z" fill="#3BA7FF"/>
<path d="M337.964 65.4388C341.73 65.0431 345.045 65.5251 347.542 67.4704C350.055 69.4288 351.318 72.5371 351.726 76.4258C352.329 82.1648 352.431 87.7486 352.895 96.6674C353.362 105.637 354.201 118.151 356.283 137.959L362.025 192.594C362.218 194.429 362.572 196.098 363.18 197.213C363.472 197.747 363.768 198.053 364.035 198.218C364.273 198.366 364.603 198.476 365.142 198.419C365.351 198.397 365.806 198.263 366.548 197.857C367.257 197.47 368.09 196.913 369.025 196.211C370.894 194.809 373.021 192.941 375.15 190.988L375.18 190.96L375.212 190.934L388.103 180.047C392.179 176.192 394.529 174.065 395.883 172.484C396.537 171.719 396.839 171.215 396.984 170.833C397.113 170.495 397.16 170.151 397.105 169.626C397.084 169.425 397.045 169.332 397.03 169.301C397.018 169.274 397.004 169.253 396.97 169.22C396.925 169.177 396.841 169.11 396.672 169.008C396.489 168.899 396.291 168.798 395.985 168.638L395.936 168.611L395.888 168.583C395.708 168.475 395.366 168.339 394.711 168.093C394.207 167.904 393.552 167.659 392.931 167.354C391.46 166.958 390.055 166.215 388.95 164.957C387.784 163.63 387.084 161.884 386.861 159.759C386.61 157.37 387 155.003 388.32 152.787C389.623 150.597 391.743 148.703 394.704 147.071C400.569 143.838 410.161 141.402 424.822 139.861C439.17 138.353 449.873 138.214 457.217 140.196C460.932 141.198 463.93 142.779 466.096 145.127C468.278 147.493 469.464 150.475 469.834 153.991C470.132 156.835 469.339 159.161 467.781 160.922C466.287 162.611 464.223 163.633 462.17 164.237C460.15 164.935 457.874 165.161 455.793 165.315C453.589 165.479 451.602 165.567 449.795 165.917L449.78 165.92L449.765 165.923C445.678 166.65 441.832 168.91 433.258 177.951L433.239 177.97L433.219 177.99L415.36 195.788C414.406 196.921 413.816 197.665 413.469 198.26C413.147 198.812 413.158 199.029 413.174 199.143C413.201 199.341 413.337 199.75 413.96 200.583C414.574 201.405 415.496 202.428 416.83 203.866L464.667 254.231L464.675 254.24L464.683 254.248C472.785 262.977 479.08 267.913 483.571 270.798C486.68 272.576 489.853 273.682 492.929 274.158C496.228 274.522 499.22 275.22 501.473 277.118C503.812 279.09 505.005 282.042 505.43 286.086C505.828 289.873 505.001 293.455 502.107 296.214C499.312 298.88 494.87 300.498 488.674 301.15L456.89 304.49C450.329 305.18 445.147 305.941 441.325 306.211C437.524 306.48 434.333 306.35 431.866 304.769L431.853 304.761L431.841 304.753C430.008 303.541 427.633 301.077 424.08 297.256C420.444 293.345 415.407 287.818 408.101 280.175L408.093 280.167L376.621 246.822L376.621 246.821C374.722 244.88 373.546 243.654 372.545 242.894C371.648 242.214 371.149 242.109 370.609 242.166C370.207 242.208 369.77 242.394 369.398 243.153C368.971 244.025 368.645 245.666 368.942 248.495C370.803 266.194 372.439 275.432 374.34 280.404L374.524 280.872L374.534 280.897L374.544 280.923C375.176 282.602 375.929 283.635 376.7 284.302C377.465 284.963 378.362 285.363 379.447 285.604C380.992 285.917 382.281 286.024 383.598 286.121C384.745 286.206 385.956 286.286 387.289 286.515L387.867 286.622L387.998 286.648L388.125 286.692C391.367 287.809 394.723 290.498 395.258 295.582C395.648 299.299 394.725 302.561 392.456 305.328C390.245 308.023 386.867 310.112 382.574 311.814C374.013 315.207 361.039 317.343 343.958 319.139C328.479 320.766 316.419 321.127 308.029 319.669C303.83 318.939 300.364 317.724 297.834 315.829C295.231 313.88 293.698 311.265 293.358 308.029C292.947 304.121 293.722 300.538 297.068 298.668C298.669 297.712 300.596 297.079 302.244 296.515C304.004 295.912 305.524 295.365 306.75 294.588C309.712 292.615 312.291 289.311 313.164 284.21L313.177 284.142C313.976 280.28 313.957 272.227 313.203 260.283C312.456 248.441 311.011 233.038 309.08 214.66L303.482 161.4C301.528 142.805 300.107 130.974 298.413 123.568C297.565 119.862 296.684 117.44 295.738 115.878C294.835 114.388 293.926 113.762 292.935 113.481L292.843 113.455L292.755 113.421C290.26 112.45 287.666 112.573 284.941 112.923C283.659 113.088 282.183 113.327 280.905 113.447C279.603 113.57 278.212 113.605 276.883 113.301C272.625 112.54 269.807 108.739 269.311 104.022C268.98 100.874 269.859 98.2365 271.846 95.8114C273.743 93.4963 276.647 91.3785 280.332 89.0711C289.403 83.1878 300.657 77.6252 311.166 73.3714C321.643 69.1308 331.578 66.1101 337.964 65.4388Z" stroke="#142A3B" stroke-width="4"/>
</g>
<g filter="url(#filter5_n_147_698)">
<path d="M140.928 264.469C151.059 293.108 174.378 305.074 199.977 302.384C229.012 299.332 243.202 280.644 241.649 265.869C239.826 248.516 226.526 239.318 190.14 236.889C145.273 233.093 106.619 217.354 101.473 168.389C96.5072 121.142 135.286 86.8416 184.766 81.6411C216.379 78.3185 223.927 88.9896 230.456 88.3034C235.954 87.7255 239.517 81.9661 245.359 81.3522C259.962 79.8173 275.493 105.283 277.606 125.384C279.104 139.644 273.035 152.962 262.383 154.082C253.964 154.967 250.981 149.722 246.579 142.542C243.306 137.848 239.048 132.042 234.058 127.529C223.66 117.853 208.57 111.448 193.279 113.055C172.319 115.258 155.109 128.358 156.915 145.539C159.244 167.702 180.023 170.381 212.783 173.018C254.558 177.139 291.539 188.538 296.396 234.754C301.579 284.062 266.922 327.83 206.961 334.132C171.226 337.888 140.302 331.237 125.521 314.552C120.838 309.66 111.771 291.158 109.532 269.854C108.105 256.281 111.615 250.006 119.69 249.157C130.17 248.056 137.52 256.837 140.928 264.469Z" fill="#3BA7FF"/>
<path d="M184.557 79.652C200.626 77.9631 210.699 79.8232 217.636 82.0816C221.049 83.1927 223.731 84.4158 225.754 85.2289C227.885 86.0855 229.16 86.4281 230.246 86.3141C232.398 86.0879 234.24 84.8488 236.645 83.1936C238.895 81.6447 241.648 79.7309 245.149 79.3627C249.432 78.9126 253.618 80.46 257.41 83.1203C261.204 85.7822 264.738 89.6471 267.814 94.1213C273.957 103.057 278.5 114.763 279.594 125.175C280.377 132.622 279.198 139.915 276.335 145.565C273.468 151.222 268.79 155.42 262.592 156.071C257.848 156.57 254.431 155.319 251.642 152.828C249.037 150.5 247.032 147.109 244.907 143.642C241.645 138.966 237.509 133.346 232.716 129.012L232.695 128.993C222.642 119.637 208.105 113.508 193.488 115.044C183.335 116.111 174.193 119.812 167.855 125.204C161.543 130.575 158.085 137.537 158.904 145.329C159.453 150.552 161.069 154.488 163.569 157.545C166.08 160.616 169.596 162.939 174.17 164.739C182.841 168.151 194.862 169.525 209.896 170.775L212.944 171.024L212.961 171.025L212.979 171.027C233.926 173.094 253.994 177.004 269.471 186.39C285.088 195.862 295.892 210.826 298.385 234.545C303.696 285.075 268.102 329.718 207.17 336.122C189.134 338.018 172.237 337.296 157.928 333.956C143.669 330.627 131.833 324.659 124.076 315.935L123.828 315.669C121.239 312.817 117.81 306.811 114.751 299.094C111.563 291.054 108.684 280.924 107.543 270.063C106.816 263.148 107.293 257.718 109.264 253.83C111.326 249.76 114.879 247.652 119.481 247.168C125.381 246.548 130.362 248.733 134.249 252.009C138.109 255.262 140.96 259.638 142.753 263.654L142.786 263.727L142.813 263.803C147.742 277.734 155.829 287.494 165.688 293.465C175.559 299.442 187.338 301.701 199.767 300.394C228.141 297.412 241.057 279.363 239.661 266.077C238.81 257.982 235.353 251.932 227.84 247.506C220.153 242.978 208.118 240.093 190.007 238.884L189.971 238.882C167.402 236.973 146.131 232.045 129.808 221.245C113.382 210.377 102.118 193.659 99.4836 168.598C94.3618 119.868 134.409 84.9228 184.557 79.652Z" stroke="#142A3B" stroke-width="4"/>
</g>
<g filter="url(#filter6_n_147_698)">
<path d="M890.071 485.776C901.986 503.284 913.424 507.988 924.419 506.832C938.851 505.315 944.73 495.144 943.863 486.897C942.708 475.901 935.447 471.28 912.725 468.283C887.334 464.698 864.27 451.837 861.182 422.458C858.329 395.312 876.336 366.669 910.869 363.04C924.786 361.577 935.346 366.199 940.157 365.694C945.483 365.134 949.028 359.203 954.011 358.679C964.147 357.614 977.671 380.511 978.989 393.053C980.145 404.048 974.601 409.147 968.932 409.743C962.747 410.393 958.922 408.711 954.899 405.138C951.825 402.335 947.431 396.891 943.995 393.951C938.779 388.941 929.927 385.703 921.508 386.587C910.341 387.761 903.486 395.256 904.479 404.705C905.653 415.873 913.817 419.184 942.209 424.885C969.842 429.971 988.937 443.076 991.646 468.847C994.77 498.57 972.458 525.928 935.863 529.774C923.321 531.093 913.258 529.545 906.756 528.838C898.021 528.367 891.891 529.532 885.616 526.023C878.084 522.125 867.371 507.791 865.656 491.469C864.843 483.738 866.996 477.779 872.15 477.238C879.882 476.425 885.297 480.025 890.071 485.776Z" fill="#3BA7FF"/>
<path d="M910.661 361.051C917.89 360.291 924.221 361.116 929.287 362.041C930.551 362.272 931.742 362.509 932.839 362.73C933.944 362.951 934.945 363.153 935.863 363.318C937.752 363.659 939.06 363.798 939.948 363.705C941.976 363.492 943.762 362.247 946.019 360.568C948.068 359.043 950.659 357.021 953.801 356.69C957.115 356.342 960.389 357.96 963.262 360.281C966.182 362.641 968.992 365.967 971.466 369.647C976.388 376.967 980.273 386.138 980.978 392.843C981.594 398.7 980.448 403.247 978.146 406.462C975.842 409.681 972.506 411.378 969.141 411.732C965.818 412.081 963.007 411.814 960.44 410.91C957.883 410.01 955.699 408.525 953.571 406.634L953.561 406.625L953.551 406.616C951.931 405.139 949.988 402.99 948.11 400.949C946.182 398.853 944.306 396.849 942.696 395.471L942.652 395.434L942.61 395.394C937.827 390.8 929.562 387.752 921.718 388.577C916.526 389.122 912.498 391.118 909.896 393.907C907.313 396.677 906.031 400.337 906.468 404.496C906.737 407.053 907.387 409.004 908.517 410.624C909.652 412.251 911.378 413.698 914.049 415.065C919.494 417.852 928.346 420.061 942.603 422.924L942.602 422.924C956.598 425.504 968.636 430.146 977.554 437.572C986.532 445.048 992.227 455.249 993.634 468.638C996.891 499.618 973.598 527.819 936.072 531.763C923.312 533.104 913.036 531.535 906.601 530.833C904.489 530.72 902.527 530.705 900.638 530.694C898.752 530.682 896.912 530.673 895.142 530.566C891.566 530.35 888.134 529.724 884.639 527.769L884.639 527.768C880.449 525.577 875.678 520.712 871.76 514.468C867.795 508.148 864.562 500.196 863.667 491.678C863.24 487.619 863.564 483.819 864.828 480.87C866.123 477.845 868.481 475.613 871.941 475.249C880.322 474.368 886.226 478.215 891.137 483.939L891.61 484.499L891.671 484.572L891.725 484.651C897.569 493.239 903.197 498.537 908.571 501.56C913.91 504.564 919.098 505.38 924.21 504.843C937.614 503.434 942.618 494.185 941.874 487.106C941.606 484.558 940.998 482.504 939.984 480.789C938.977 479.086 937.505 477.608 935.347 476.302C930.934 473.631 923.807 471.762 912.463 470.266L912.455 470.265L912.445 470.263C899.532 468.44 887.045 464.239 877.353 456.615C867.608 448.949 860.793 437.899 859.192 422.666C856.234 394.519 874.935 364.805 910.661 361.051Z" stroke="#142A3B" stroke-width="4"/>
</g>
<g filter="url(#filter7_n_147_698)">
<path d="M693.846 448.383L688.248 395.123C684.348 358.013 682.523 347.261 676.257 345.488C670.28 343.163 664.176 346.237 660.08 345.277C656.897 344.743 654.511 341.868 654.077 337.744C653.535 332.59 656.836 329.29 664.17 324.698C682.058 313.09 708.752 302.642 720.951 301.36C727.995 300.619 731.756 303.351 732.514 310.566C733.706 321.906 732.9 332.413 737.071 372.1L742.813 426.734C743.211 430.514 744.349 434.737 748.129 434.34C750.534 434.087 755.002 430.317 759.279 426.393L772.203 415.481C780.26 407.86 782.196 406.441 781.871 403.348C781.708 401.802 780.795 401.377 779.692 400.798C778.95 400.355 777.522 399.984 776.419 399.405C773.923 398.799 772.006 397.089 771.627 393.481C770.779 385.406 778.601 378.852 807.808 375.782C836.5 372.767 849.285 375.418 850.622 388.132C851.109 392.77 848.061 395.175 844.354 396.26C840.836 397.498 836.107 397.127 832.192 397.885C827.417 398.735 823.185 401.438 814.584 410.506L796.66 428.37C792.798 432.945 792.852 433.461 798.141 439.158L845.994 489.54C854.221 498.403 860.658 503.459 865.315 506.443C868.642 508.352 872.069 509.555 875.423 510.071C881.925 510.777 885.424 512.668 886.218 520.227C886.923 526.928 883.269 531.828 871.242 533.092L839.458 536.433C826.057 537.841 819.447 539.404 815.722 537.017C812.549 534.918 806.961 528.036 792.324 512.725L760.853 479.381C757.156 475.601 755.583 473.856 753.177 474.109C750.944 474.343 749.099 476.622 749.731 482.635C751.645 500.846 753.343 510.395 755.449 515.559C756.896 519.402 759.138 520.903 761.805 521.492C765.178 522.179 767.411 521.945 770.251 522.515C772.954 523.446 775.612 525.599 776.046 529.722C777.4 542.608 760.716 547.488 726.527 551.081C695.601 554.332 679.244 552.403 678.125 541.751C677.745 538.143 678.524 535.63 680.82 534.346C683.597 532.665 687.702 532.059 690.632 530.188C694.041 527.919 696.945 524.14 697.913 518.479C699.641 510.134 697.71 485.15 693.846 448.383Z" fill="#3BA7FF"/>
<path d="M720.742 299.37C724.508 298.975 727.822 299.457 730.319 301.402C732.833 303.36 734.095 306.469 734.504 310.357C735.107 316.096 735.208 321.68 735.673 330.599C736.14 339.569 736.978 352.083 739.06 371.891L744.803 426.526C744.995 428.36 745.35 430.03 745.959 431.145C746.25 431.679 746.545 431.985 746.813 432.15C747.05 432.297 747.38 432.408 747.92 432.351C748.129 432.329 748.583 432.195 749.326 431.789C750.034 431.402 750.867 430.844 751.802 430.143C753.672 428.74 755.798 426.872 757.927 424.919L757.958 424.892L757.989 424.866L770.873 413.986C774.954 410.126 777.307 407.998 778.661 406.415C779.316 405.651 779.616 405.147 779.761 404.765C779.89 404.426 779.937 404.083 779.882 403.557C779.861 403.357 779.824 403.264 779.809 403.232C779.796 403.206 779.782 403.185 779.747 403.151C779.702 403.108 779.619 403.041 779.449 402.94C779.266 402.831 779.068 402.729 778.763 402.569L778.713 402.543L778.666 402.515C778.486 402.407 778.143 402.271 777.488 402.025C776.985 401.836 776.329 401.592 775.709 401.287C774.238 400.891 772.833 400.147 771.727 398.889C770.561 397.562 769.862 395.816 769.638 393.69C769.387 391.302 769.777 388.935 771.097 386.718C772.4 384.529 774.521 382.635 777.481 381.003C783.347 377.77 792.938 375.334 807.599 373.793C821.947 372.285 832.65 372.146 839.994 374.127C843.709 375.13 846.707 376.71 848.873 379.058C851.056 381.425 852.241 384.407 852.611 387.923C852.91 390.766 852.117 393.092 850.56 394.853C849.065 396.543 847 397.564 844.948 398.169C842.927 398.867 840.651 399.092 838.57 399.247C836.366 399.41 834.38 399.498 832.572 399.849L832.558 399.852L832.542 399.855C828.455 400.582 824.61 402.842 816.035 411.882L816.017 411.902L815.996 411.922L798.138 429.72C797.183 430.852 796.593 431.597 796.246 432.192C795.924 432.744 795.935 432.961 795.951 433.074C795.978 433.273 796.115 433.682 796.738 434.515C797.352 435.336 798.273 436.36 799.607 437.797L847.444 488.163L847.452 488.172L847.46 488.18C855.563 496.908 861.858 501.845 866.348 504.73C869.457 506.507 872.63 507.614 875.707 508.09C879.006 508.453 881.998 509.152 884.25 511.05C886.589 513.021 887.782 515.973 888.207 520.018C888.605 523.805 887.779 527.386 884.885 530.146C882.09 532.811 877.648 534.43 871.452 535.081L839.667 538.422C833.106 539.111 827.924 539.873 824.102 540.143C820.302 540.412 817.11 540.281 814.643 538.7L814.63 538.693L814.619 538.685C812.785 537.473 810.41 535.009 806.857 531.188C803.221 527.277 798.184 521.749 790.879 514.107L790.87 514.098L759.399 480.754L759.398 480.753C757.5 478.812 756.323 477.585 755.322 476.826C754.425 476.145 753.927 476.04 753.387 476.097C752.984 476.139 752.548 476.325 752.176 477.085C751.749 477.956 751.423 479.598 751.72 482.426C753.58 500.125 755.217 509.363 757.117 514.336L757.302 514.803L757.311 514.829L757.322 514.854C757.954 516.534 758.707 517.567 759.478 518.233C760.242 518.894 761.14 519.295 762.225 519.535C763.769 519.849 765.059 519.955 766.376 520.053C767.522 520.137 768.734 520.217 770.066 520.446L770.645 520.553L770.775 520.58L770.903 520.623C774.144 521.741 777.501 524.43 778.035 529.514C778.426 533.231 777.503 536.493 775.234 539.259C773.023 541.954 769.645 544.044 765.352 545.746C756.79 549.139 743.817 551.275 726.736 553.07C711.256 554.697 699.196 555.059 690.806 553.6C686.607 552.87 683.142 551.655 680.612 549.761C678.008 547.811 676.475 545.197 676.135 541.961C675.724 538.053 676.499 534.47 679.845 532.6C681.446 531.643 683.373 531.01 685.021 530.446C686.78 529.844 688.3 529.297 689.526 528.521C692.489 526.548 695.069 523.243 695.941 518.142L695.948 518.108L695.955 518.074C696.755 514.212 696.734 506.159 695.981 494.215C695.234 482.373 693.789 466.97 691.857 448.592L686.259 395.332C684.305 376.737 682.884 364.906 681.19 357.5C680.342 353.794 679.462 351.372 678.515 349.81C677.613 348.32 676.703 347.693 675.712 347.413L675.62 347.386L675.532 347.352C673.037 346.382 670.443 346.505 667.718 346.855C666.436 347.019 664.96 347.259 663.683 347.379C662.38 347.502 660.989 347.537 659.66 347.232C655.402 346.472 652.584 342.671 652.088 337.953C651.757 334.806 652.637 332.168 654.624 329.743C656.521 327.428 659.424 325.31 663.109 323.003C672.181 317.119 683.434 311.557 693.944 307.303C704.42 303.062 714.355 300.042 720.742 299.37Z" stroke="#142A3B" stroke-width="4"/>
</g>
<g filter="url(#filter8_n_147_698)">
<path d="M610.509 457.142L605.706 411.442C601.246 369.006 597.812 356.165 589.294 354.455C583.462 353.504 580.668 355.014 577.349 354.842C572.964 354.434 570.026 351.269 569.574 346.974C568.87 340.273 571.809 336.838 578.953 332.091C594.3 321.098 624.041 311.545 637.958 310.083C643.284 309.523 645.852 310.816 646.502 317.001C648.326 334.354 648.873 361.047 653.496 405.029L658.209 449.871C662.831 493.853 666.264 516.595 670.015 524.191C671.841 528.342 674.409 529.635 677.248 530.206C680.793 530.875 683.18 530.451 685.865 531.211C688.207 532.007 690.314 533.87 690.711 537.649C691.722 547.271 682.272 554.865 644.646 558.819C607.708 562.702 592.933 560.954 591.813 550.302C591.308 545.492 593.234 542.336 596.39 540.962C599.239 539.968 602.675 539.607 605.352 538.631C608.372 537.618 611.709 534.662 612.768 529.861C615.003 519.725 614.554 495.627 610.509 457.142Z" fill="#3BA7FF"/>
<path d="M637.749 308.094C640.487 307.806 643.136 307.9 645.172 309.404C647.253 310.942 648.148 313.534 648.49 316.792C649.408 325.52 650.005 336.601 650.945 350.898C651.886 365.224 653.177 382.864 655.485 404.82L660.198 449.661C662.509 471.646 664.518 488.285 666.415 500.365C668.327 512.544 670.089 519.825 671.808 523.305L671.828 523.345L671.846 523.386C672.646 525.205 673.548 526.267 674.447 526.938C675.35 527.611 676.386 527.99 677.625 528.241C679.241 528.546 680.589 528.604 681.984 528.677C683.185 528.741 684.462 528.816 685.822 529.134L686.41 529.286L686.46 529.301L686.509 529.317C687.957 529.809 689.404 530.657 690.551 532.027C691.706 533.406 692.465 535.204 692.7 537.44C692.992 540.222 692.529 542.962 690.926 545.521C689.346 548.045 686.759 550.232 683.087 552.135C675.797 555.912 663.71 558.827 644.855 560.809C626.397 562.749 613.233 563.315 604.498 561.989C600.124 561.325 596.641 560.157 594.141 558.269C591.554 556.314 590.158 553.693 589.824 550.511C589.539 547.8 589.925 545.398 590.955 543.42C591.992 541.428 593.62 539.987 595.592 539.128L595.661 539.098L595.731 539.074C597.292 538.529 598.989 538.166 600.511 537.836C602.089 537.493 603.479 537.185 604.666 536.752L604.691 536.743L604.716 536.735C607.1 535.936 609.913 533.516 610.814 529.43C611.875 524.62 612.332 516.273 611.994 504.188C611.657 492.155 610.54 476.563 608.52 457.351L603.717 411.651C601.485 390.41 599.524 376.76 597.097 368.223C594.655 359.631 591.977 357.047 588.93 356.422C586.279 355.995 584.337 356.121 582.635 356.34C581.012 356.549 579.145 356.938 577.246 356.839L577.205 356.837L577.164 356.833C571.759 356.331 568.129 352.354 567.585 347.183C567.194 343.459 567.812 340.434 569.661 337.683C571.43 335.054 574.226 332.833 577.809 330.45C585.703 324.801 597.166 319.596 608.322 315.629C619.488 311.658 630.57 308.848 637.749 308.094Z" stroke="#142A3B" stroke-width="4"/>
</g>
<g filter="url(#filter9_n_147_698)">
<path d="M425.213 500.936C420.265 453.861 454.687 411.16 508.29 405.526C554.163 400.704 591.657 428.551 596.749 477.001C601.913 526.138 567.148 568.875 516.465 574.202C469.39 579.15 430.251 548.87 425.213 500.936ZM522.98 546.94C539.989 545.153 551.249 528.336 549.172 508.578C545.832 476.794 525.53 432.375 499.587 435.102C483.609 436.781 472.051 452.413 474.29 473.717C477.865 507.735 498.412 549.523 522.98 546.94Z" fill="#3BA7FF"/>
<path d="M508.082 403.537C531.478 401.078 552.853 406.944 569.05 419.716C585.256 432.496 596.141 452.081 598.738 476.792C604.021 527.055 568.427 570.751 516.674 576.191C468.537 581.25 428.381 550.213 423.224 501.146C418.151 452.882 453.471 409.276 508.082 403.537ZM499.796 437.09C485.218 438.623 474.121 452.975 476.279 473.508C478.039 490.251 483.985 508.918 492.476 523.023C501.068 537.295 511.748 546.11 522.771 544.952C538.379 543.311 549.179 527.775 547.183 508.787C545.541 493.162 539.715 474.391 531.135 459.918C522.455 445.275 511.491 435.861 499.796 437.09Z" stroke="#142A3B" stroke-width="4"/>
</g>
<g filter="url(#filter10_n_147_698)">
<path d="M284.27 491.605L280.298 453.808C277.426 426.491 273.216 402.962 264.952 400.356C253.089 396.566 219.371 391.424 196.349 393.844C176.248 395.957 156.669 409.653 160.064 441.952C162.339 463.6 175.784 474.173 191.852 473.352C201.581 473.372 204.965 462.594 217.1 462.361C229.271 462.471 238.682 471.036 240.434 487.701C242.005 502.648 228.611 515.694 210.4 517.608C179.474 520.859 136.852 502.062 131.67 452.754C125.223 391.419 169.879 356.848 225.716 350.979C261.452 347.223 321.221 350.669 376.886 344.818C385.992 343.861 394.528 342.443 399.294 339.857C405.552 336.594 408.51 330.03 415.897 329.253C427.236 328.062 434.153 336.02 435.326 347.187C437.511 367.976 408.129 390.866 355.9 396.356C336.142 398.432 334.379 399.834 333.266 407.42C332.803 414.591 333.778 427.169 334.374 432.838C334.915 437.992 335.023 442.324 335.565 447.478C336.414 455.553 337.435 457.009 344.108 457.697C348.512 458.276 353.892 458.232 362.654 457.311C381.725 455.307 392.206 447.604 405.091 446.25C412.995 445.419 417.868 450.466 418.518 456.651C419.709 467.99 418 473.207 418.921 481.969C420.672 498.634 424.072 501.23 424.92 509.305C425.805 517.723 421.084 522.389 414.04 523.129C396.001 525.025 392.378 502.129 381.602 488.844C378.718 486.195 375.02 485.715 367.46 486.509C359.385 487.358 353.236 488.352 349.628 488.731C342.756 489.453 341.915 493.016 342.348 497.139C342.98 503.152 343.295 511.11 344.008 519.546L345.207 542.523C348.347 585.619 341.03 600.284 336.986 613.042C327.397 640.801 301.343 658.999 268.356 662.466C228.497 666.655 193.1 645.536 190.391 619.765C188.621 602.928 198.769 590.397 215.262 588.663C232.099 586.894 244.784 600.152 246.192 613.553C247.276 623.861 252.021 637.606 271.778 635.529C290.333 633.579 297.308 612.349 294.275 583.485C292.92 570.6 289.976 545.896 284.27 491.605Z" fill="#3BA7FF"/>
<path d="M415.688 327.264C421.909 326.611 427.077 328.474 430.826 332.159C434.531 335.8 436.694 341.059 437.316 346.978C438.522 358.458 430.991 369.991 417.122 379.176C403.182 388.408 382.447 395.577 356.109 398.345C351.177 398.864 347.427 399.334 344.545 399.861C341.644 400.392 339.764 400.958 338.501 401.603C337.311 402.211 336.693 402.876 336.274 403.695C335.813 404.594 335.529 405.793 335.257 407.627C334.819 414.625 335.77 426.982 336.363 432.629C336.638 435.248 336.802 437.654 336.964 440.021C337.127 442.396 337.288 444.733 337.554 447.269C337.765 449.274 337.977 450.762 338.26 451.901C338.542 453.034 338.863 453.678 339.2 454.09C339.784 454.803 340.806 455.295 343.708 455.64L344.313 455.708L344.342 455.71L344.369 455.714C348.545 456.263 353.746 456.237 362.445 455.322C371.741 454.345 378.951 451.982 385.524 449.651C392.044 447.34 398.148 444.969 404.882 444.261C409.32 443.795 413.07 444.975 415.814 447.291C418.538 449.591 420.134 452.893 420.507 456.442C421.118 462.257 420.983 466.511 420.819 470.362C420.654 474.205 420.467 477.551 420.909 481.76C421.769 489.946 423.028 494.63 424.167 498.259C425.303 501.877 426.459 504.804 426.91 509.096C427.396 513.721 426.357 517.571 423.982 520.386C421.621 523.184 418.151 524.708 414.249 525.118C409.263 525.642 405.18 524.444 401.746 522.09C398.373 519.777 395.718 516.413 393.406 512.746C391.102 509.093 389.016 504.931 386.917 501.017C384.814 497.094 382.667 493.361 380.142 490.221C377.978 488.299 375.092 487.718 367.669 488.498C363.66 488.919 360.125 489.377 357.135 489.778C354.165 490.176 351.679 490.526 349.837 490.72C346.695 491.05 345.453 491.974 344.904 492.783C344.303 493.668 344.132 494.978 344.337 496.93C344.967 502.922 345.303 511.12 346.001 519.377L346.006 519.442L347.202 542.378L347.343 544.389C348.715 564.965 347.675 579.009 345.758 589.518C343.786 600.333 340.868 607.414 338.892 613.647L338.885 613.671L338.876 613.696C328.982 642.335 302.156 660.924 268.565 664.455C248.241 666.591 229.009 662.284 214.461 654.094C199.955 645.927 189.848 633.727 188.402 619.974C187.469 611.099 189.67 603.214 194.418 597.298C199.167 591.382 206.339 587.59 215.054 586.674C233.129 584.775 246.672 598.989 248.181 613.344C248.707 618.353 250.104 623.883 253.507 627.891C256.8 631.769 262.23 634.521 271.57 633.54C279.949 632.659 285.793 627.491 289.267 618.854C292.78 610.12 293.785 597.965 292.285 583.694C291.609 577.259 290.536 567.877 288.916 553.293C287.297 538.717 285.134 518.964 282.281 491.815L278.308 454.017C276.874 440.374 275.116 427.782 272.709 418.307C271.504 413.563 270.161 409.702 268.669 406.908C267.143 404.051 265.655 402.675 264.351 402.264L264.343 402.262C258.592 400.424 247.345 398.209 234.609 396.759C221.886 395.309 207.863 394.645 196.559 395.833C186.862 396.853 177.45 400.65 170.88 407.92C164.347 415.147 160.403 426.046 162.053 441.743C163.152 452.194 166.919 459.761 172.145 464.612C177.2 469.302 183.772 471.595 191.044 471.383L191.75 471.355L191.802 471.353L191.855 471.352C195.924 471.36 198.656 469.177 202.363 466.359C205.873 463.69 210.04 460.685 216.435 460.382L217.061 460.361L217.09 460.361L217.117 460.361C223.693 460.421 229.617 462.778 234.113 467.434C238.589 472.069 241.513 478.833 242.423 487.492C244.15 503.927 229.483 517.614 210.609 519.597C178.885 522.932 135.008 503.647 129.68 452.962C126.397 421.72 136.14 397.132 153.934 379.641C171.675 362.201 197.265 351.959 225.507 348.99C243.492 347.1 267.494 347.023 293.803 346.684C320.169 346.345 348.946 345.743 376.678 342.829C381.201 342.353 385.538 341.768 389.314 340.99C393.12 340.205 396.217 339.251 398.34 338.099L398.355 338.092L398.369 338.084C401.215 336.6 403.22 334.431 405.853 332.12C408.395 329.888 411.37 327.718 415.688 327.264Z" stroke="#142A3B" stroke-width="4"/>
</g>
<g filter="url(#filter11_n_147_698)">
<path d="M85.2606 394.851L59.4686 397.562C56.4379 397.88 52.4926 397.232 52.044 392.964L51.5565 388.325C51.1664 384.614 52.1824 382.381 54.1329 378.925L78.9223 334.546C83.2595 327.024 89.0521 317.285 97.4021 316.407C101.855 315.939 103.899 318.726 104.27 322.252C104.809 327.385 104.606 334.973 105.581 344.251L108.344 370.538C108.513 372.146 108.855 372.423 109.845 372.319C111.7 372.124 112.609 371.841 113.969 371.698C115.577 371.529 116.332 372.762 116.475 374.123C116.813 377.339 117.818 386.301 117.922 387.291C118.123 389.208 116.828 391.158 114.91 391.36C114.292 391.425 113.234 391.473 112.739 391.525C112.059 391.597 111.821 392.31 111.931 393.361L112.692 400.598C112.965 403.195 113.785 405.048 113.863 405.79C113.967 406.78 113.475 407.457 112.056 408.231C110.106 409.312 98.2987 410.615 92.4847 411.226C90.691 411.415 89.2034 410.946 88.9954 408.967C88.8524 407.606 89.2042 406.193 88.6711 401.121L88.2161 396.792C88.073 395.431 87.4872 394.617 85.2606 394.851ZM86.2014 374.053C85.9543 371.703 84.9632 360.488 84.5472 356.53C84.0726 352.015 83.4446 350.205 81.5891 350.4C80.0428 350.562 78.9423 351.991 78.1087 353.58L70.1471 368.862C68.2162 372.504 66.7314 375.037 66.9004 376.645C67.0564 378.129 68.2901 378.562 70.4549 378.335C75.6504 377.789 81.025 377.161 83.3753 376.914C86.0968 376.628 86.3834 375.785 86.2014 374.053Z" fill="#3BA7FF"/>
<path d="M97.1933 314.418C99.896 314.134 102.144 314.832 103.758 316.395C105.317 317.904 106.043 319.987 106.259 322.043C106.538 324.696 106.624 327.973 106.761 331.623C106.899 335.31 107.09 339.472 107.57 344.042L110.325 370.246C110.855 370.175 111.303 370.098 111.739 370.02C112.349 369.91 112.993 369.789 113.76 369.708C115.182 369.559 116.415 370.051 117.265 371.006C118.041 371.876 118.366 372.974 118.464 373.914C118.633 375.516 118.968 378.554 119.274 381.322C119.58 384.081 119.859 386.58 119.911 387.082C120.204 389.869 118.351 393.009 115.119 393.349C114.776 393.385 114.334 393.414 113.95 393.439L114.681 400.388C114.801 401.53 115.043 402.522 115.275 403.345C115.405 403.804 115.494 404.084 115.607 404.475C115.693 404.771 115.811 405.192 115.852 405.581C115.95 406.512 115.758 407.441 115.141 408.278C114.594 409.019 113.812 409.552 113.014 409.987L113.013 409.985C112.544 410.243 111.951 410.432 111.413 410.577C110.828 410.734 110.132 410.886 109.372 411.033C107.848 411.327 105.966 411.616 103.991 411.886C100.036 412.428 95.6035 412.909 92.694 413.215C91.6305 413.327 90.327 413.29 89.1835 412.663C87.8978 411.958 87.1676 410.71 87.0063 409.176C86.9199 408.354 86.9769 407.397 86.9798 406.429C86.983 405.344 86.9415 403.794 86.6824 401.33L86.2274 397C86.2198 396.928 86.2071 396.869 86.1988 396.822C86.0513 396.807 85.8172 396.804 85.4692 396.84L59.6777 399.551C57.9911 399.728 55.8352 399.668 53.9505 398.799C51.9184 397.861 50.3563 396.04 50.055 393.173L49.5674 388.535C49.1103 384.186 50.3859 381.495 52.3906 377.942L77.1765 333.571L77.1831 333.559L77.1897 333.547C79.3472 329.805 81.9693 325.324 85.1493 321.672C88.3169 318.034 92.2792 314.935 97.1933 314.418ZM81.7043 352.405C81.5317 352.446 81.3011 352.562 81.0003 352.864C80.6287 353.238 80.2543 353.796 79.88 354.509L71.9205 369.786L71.914 369.799C70.9193 371.675 70.1141 373.129 69.5545 374.349C69.0313 375.49 68.8971 376.08 68.8874 376.345C68.9533 376.358 69.042 376.373 69.1583 376.381C69.4258 376.402 69.7825 376.394 70.2455 376.346C72.8361 376.073 75.4734 375.78 77.7594 375.525C80.0392 375.269 81.9817 375.049 83.1658 374.925C83.7012 374.869 84.0387 374.794 84.244 374.729C84.2423 374.621 84.2345 374.47 84.2126 374.262C84.0873 373.07 83.7751 369.657 83.4457 366.078C83.1145 362.48 82.7647 358.702 82.5583 356.738C82.3178 354.45 82.0607 353.18 81.7636 352.522C81.7426 352.475 81.7212 352.437 81.7043 352.405Z" stroke="#142A3B" stroke-width="4"/>
</g>
<defs>
<filter id="filter0_n_147_698" x="720.92" y="94.77" width="139.05" height="179.646" filterUnits="userSpaceOnUse" color-interpolation-filters="sRGB">
<feFlood flood-opacity="0" result="BackgroundImageFix"/>
<feBlend mode="normal" in="SourceGraphic" in2="BackgroundImageFix" result="shape"/>
<feTurbulence type="fractalNoise" baseFrequency="0.18418078124523163 0.18418078124523163" stitchTiles="stitch" numOctaves="3" result="noise" seed="264" />
<feComponentTransfer in="noise" result="coloredNoise1">
<feFuncR type="linear" slope="2" intercept="-0.5" />
<feFuncG type="linear" slope="2" intercept="-0.5" />
<feFuncB type="linear" slope="2" intercept="-0.5" />
<feFuncA type="discrete" tableValues="0 0 0 0 0 0 0 0 0 0 0 0 0 0 0 0 1 1 1 1 1 1 1 1 1 1 1 1 1 1 1 1 1 0 0 0 0 0 0 0 0 0 0 0 0 0 0 0 0 0 0 0 0 0 0 0 0 0 0 0 0 0 0 0 0 0 0 0 0 0 0 0 0 0 0 0 0 0 0 0 0 0 0 0 0 0 0 0 0 0 0 0 0 0 0 0 0 0 0 0 "/>
</feComponentTransfer>
<feComposite operator="in" in2="shape" in="coloredNoise1" result="noise1Clipped" />
<feComponentTransfer in="noise1Clipped" result="color1">
<feFuncA type="table" tableValues="0 0.08" />
</feComponentTransfer>
<feMerge result="effect1_noise_147_698">
<feMergeNode in="shape" />
<feMergeNode in="color1" />
</feMerge>
</filter>
<filter id="filter1_n_147_698" x="620.385" y="26.0288" width="129.31" height="258.746" filterUnits="userSpaceOnUse" color-interpolation-filters="sRGB">
<feFlood flood-opacity="0" result="BackgroundImageFix"/>
<feBlend mode="normal" in="SourceGraphic" in2="BackgroundImageFix" result="shape"/>
<feTurbulence type="fractalNoise" baseFrequency="0.18418078124523163 0.18418078124523163" stitchTiles="stitch" numOctaves="3" result="noise" seed="264" />
<feComponentTransfer in="noise" result="coloredNoise1">
<feFuncR type="linear" slope="2" intercept="-0.5" />
<feFuncG type="linear" slope="2" intercept="-0.5" />
<feFuncB type="linear" slope="2" intercept="-0.5" />
<feFuncA type="discrete" tableValues="0 0 0 0 0 0 0 0 0 0 0 0 0 0 0 0 1 1 1 1 1 1 1 1 1 1 1 1 1 1 1 1 1 0 0 0 0 0 0 0 0 0 0 0 0 0 0 0 0 0 0 0 0 0 0 0 0 0 0 0 0 0 0 0 0 0 0 0 0 0 0 0 0 0 0 0 0 0 0 0 0 0 0 0 0 0 0 0 0 0 0 0 0 0 0 0 0 0 0 0 "/>
</feComponentTransfer>
<feComposite operator="in" in2="shape" in="coloredNoise1" result="noise1Clipped" />
<feComponentTransfer in="noise1Clipped" result="color1">
<feFuncA type="table" tableValues="0 0.08" />
</feComponentTransfer>
<feMerge result="effect1_noise_147_698">
<feMergeNode in="shape" />
<feMergeNode in="color1" />
</feMerge>
</filter>
<filter id="filter2_n_147_698" x="537.22" y="34.77" width="129.31" height="258.746" filterUnits="userSpaceOnUse" color-interpolation-filters="sRGB">
<feFlood flood-opacity="0" result="BackgroundImageFix"/>
<feBlend mode="normal" in="SourceGraphic" in2="BackgroundImageFix" result="shape"/>
<feTurbulence type="fractalNoise" baseFrequency="0.18418078124523163 0.18418078124523163" stitchTiles="stitch" numOctaves="3" result="noise" seed="264" />
<feComponentTransfer in="noise" result="coloredNoise1">
<feFuncR type="linear" slope="2" intercept="-0.5" />
<feFuncG type="linear" slope="2" intercept="-0.5" />
<feFuncB type="linear" slope="2" intercept="-0.5" />
<feFuncA type="discrete" tableValues="0 0 0 0 0 0 0 0 0 0 0 0 0 0 0 0 1 1 1 1 1 1 1 1 1 1 1 1 1 1 1 1 1 0 0 0 0 0 0 0 0 0 0 0 0 0 0 0 0 0 0 0 0 0 0 0 0 0 0 0 0 0 0 0 0 0 0 0 0 0 0 0 0 0 0 0 0 0 0 0 0 0 0 0 0 0 0 0 0 0 0 0 0 0 0 0 0 0 0 0 "/>
</feComponentTransfer>
<feComposite operator="in" in2="shape" in="coloredNoise1" result="noise1Clipped" />
<feComponentTransfer in="noise1Clipped" result="color1">
<feFuncA type="table" tableValues="0 0.08" />
</feComponentTransfer>
<feMerge result="effect1_noise_147_698">
<feMergeNode in="shape" />
<feMergeNode in="color1" />
</feMerge>
</filter>
<filter id="filter3_n_147_698" x="465.551" y="54.8896" width="118.371" height="248.282" filterUnits="userSpaceOnUse" color-interpolation-filters="sRGB">
<feFlood flood-opacity="0" result="BackgroundImageFix"/>
<feBlend mode="normal" in="SourceGraphic" in2="BackgroundImageFix" result="shape"/>
<feTurbulence type="fractalNoise" baseFrequency="0.18418078124523163 0.18418078124523163" stitchTiles="stitch" numOctaves="3" result="noise" seed="264" />
<feComponentTransfer in="noise" result="coloredNoise1">
<feFuncR type="linear" slope="2" intercept="-0.5" />
<feFuncG type="linear" slope="2" intercept="-0.5" />
<feFuncB type="linear" slope="2" intercept="-0.5" />
<feFuncA type="discrete" tableValues="0 0 0 0 0 0 0 0 0 0 0 0 0 0 0 0 1 1 1 1 1 1 1 1 1 1 1 1 1 1 1 1 1 0 0 0 0 0 0 0 0 0 0 0 0 0 0 0 0 0 0 0 0 0 0 0 0 0 0 0 0 0 0 0 0 0 0 0 0 0 0 0 0 0 0 0 0 0 0 0 0 0 0 0 0 0 0 0 0 0 0 0 0 0 0 0 0 0 0 0 "/>
</feComponentTransfer>
<feComposite operator="in" in2="shape" in="coloredNoise1" result="noise1Clipped" />
<feComponentTransfer in="noise1Clipped" result="color1">
<feFuncA type="table" tableValues="0 0.08" />
</feComponentTransfer>
<feMerge result="effect1_noise_147_698">
<feMergeNode in="shape" />
<feMergeNode in="color1" />
</feMerge>
</filter>
<filter id="filter4_n_147_698" x="267.242" y="63.3115" width="240.281" height="259.273" filterUnits="userSpaceOnUse" color-interpolation-filters="sRGB">
<feFlood flood-opacity="0" result="BackgroundImageFix"/>
<feBlend mode="normal" in="SourceGraphic" in2="BackgroundImageFix" result="shape"/>
<feTurbulence type="fractalNoise" baseFrequency="0.18418078124523163 0.18418078124523163" stitchTiles="stitch" numOctaves="3" result="noise" seed="264" />
<feComponentTransfer in="noise" result="coloredNoise1">
<feFuncR type="linear" slope="2" intercept="-0.5" />
<feFuncG type="linear" slope="2" intercept="-0.5" />
<feFuncB type="linear" slope="2" intercept="-0.5" />
<feFuncA type="discrete" tableValues="0 0 0 0 0 0 0 0 0 0 0 0 0 0 0 0 1 1 1 1 1 1 1 1 1 1 1 1 1 1 1 1 1 0 0 0 0 0 0 0 0 0 0 0 0 0 0 0 0 0 0 0 0 0 0 0 0 0 0 0 0 0 0 0 0 0 0 0 0 0 0 0 0 0 0 0 0 0 0 0 0 0 0 0 0 0 0 0 0 0 0 0 0 0 0 0 0 0 0 0 "/>
</feComponentTransfer>
<feComposite operator="in" in2="shape" in="coloredNoise1" result="noise1Clipped" />
<feComponentTransfer in="noise1Clipped" result="color1">
<feFuncA type="table" tableValues="0 0.08" />
</feComponentTransfer>
<feMerge result="effect1_noise_147_698">
<feMergeNode in="shape" />
<feMergeNode in="color1" />
</feMerge>
</filter>
<filter id="filter5_n_147_698" x="97.04" y="76.998" width="203.868" height="262.153" filterUnits="userSpaceOnUse" color-interpolation-filters="sRGB">
<feFlood flood-opacity="0" result="BackgroundImageFix"/>
<feBlend mode="normal" in="SourceGraphic" in2="BackgroundImageFix" result="shape"/>
<feTurbulence type="fractalNoise" baseFrequency="0.18418078124523163 0.18418078124523163" stitchTiles="stitch" numOctaves="3" result="noise" seed="264" />
<feComponentTransfer in="noise" result="coloredNoise1">
<feFuncR type="linear" slope="2" intercept="-0.5" />
<feFuncG type="linear" slope="2" intercept="-0.5" />
<feFuncB type="linear" slope="2" intercept="-0.5" />
<feFuncA type="discrete" tableValues="0 0 0 0 0 0 0 0 0 0 0 0 0 0 0 0 1 1 1 1 1 1 1 1 1 1 1 1 1 1 1 1 1 0 0 0 0 0 0 0 0 0 0 0 0 0 0 0 0 0 0 0 0 0 0 0 0 0 0 0 0 0 0 0 0 0 0 0 0 0 0 0 0 0 0 0 0 0 0 0 0 0 0 0 0 0 0 0 0 0 0 0 0 0 0 0 0 0 0 0 "/>
</feComponentTransfer>
<feComposite operator="in" in2="shape" in="coloredNoise1" result="noise1Clipped" />
<feComponentTransfer in="noise1Clipped" result="color1">
<feFuncA type="table" tableValues="0 0.08" />
</feComponentTransfer>
<feMerge result="effect1_noise_147_698">
<feMergeNode in="shape" />
<feMergeNode in="color1" />
</feMerge>
</filter>
<filter id="filter6_n_147_698" x="856.889" y="354.643" width="139.05" height="179.646" filterUnits="userSpaceOnUse" color-interpolation-filters="sRGB">
<feFlood flood-opacity="0" result="BackgroundImageFix"/>
<feBlend mode="normal" in="SourceGraphic" in2="BackgroundImageFix" result="shape"/>
<feTurbulence type="fractalNoise" baseFrequency="0.18418078124523163 0.18418078124523163" stitchTiles="stitch" numOctaves="3" result="noise" seed="264" />
<feComponentTransfer in="noise" result="coloredNoise1">
<feFuncR type="linear" slope="2" intercept="-0.5" />
<feFuncG type="linear" slope="2" intercept="-0.5" />
<feFuncB type="linear" slope="2" intercept="-0.5" />
<feFuncA type="discrete" tableValues="0 0 0 0 0 0 0 0 0 0 0 0 0 0 0 0 1 1 1 1 1 1 1 1 1 1 1 1 1 1 1 1 1 0 0 0 0 0 0 0 0 0 0 0 0 0 0 0 0 0 0 0 0 0 0 0 0 0 0 0 0 0 0 0 0 0 0 0 0 0 0 0 0 0 0 0 0 0 0 0 0 0 0 0 0 0 0 0 0 0 0 0 0 0 0 0 0 0 0 0 "/>
</feComponentTransfer>
<feComposite operator="in" in2="shape" in="coloredNoise1" result="noise1Clipped" />
<feComponentTransfer in="noise1Clipped" result="color1">
<feFuncA type="table" tableValues="0 0.08" />
</feComponentTransfer>
<feMerge result="effect1_noise_147_698">
<feMergeNode in="shape" />
<feMergeNode in="color1" />
</feMerge>
</filter>
<filter id="filter7_n_147_698" x="650.02" y="297.243" width="240.281" height="259.273" filterUnits="userSpaceOnUse" color-interpolation-filters="sRGB">
<feFlood flood-opacity="0" result="BackgroundImageFix"/>
<feBlend mode="normal" in="SourceGraphic" in2="BackgroundImageFix" result="shape"/>
<feTurbulence type="fractalNoise" baseFrequency="0.18418078124523163 0.18418078124523163" stitchTiles="stitch" numOctaves="3" result="noise" seed="264" />
<feComponentTransfer in="noise" result="coloredNoise1">
<feFuncR type="linear" slope="2" intercept="-0.5" />
<feFuncG type="linear" slope="2" intercept="-0.5" />
<feFuncB type="linear" slope="2" intercept="-0.5" />
<feFuncA type="discrete" tableValues="0 0 0 0 0 0 0 0 0 0 0 0 0 0 0 0 1 1 1 1 1 1 1 1 1 1 1 1 1 1 1 1 1 0 0 0 0 0 0 0 0 0 0 0 0 0 0 0 0 0 0 0 0 0 0 0 0 0 0 0 0 0 0 0 0 0 0 0 0 0 0 0 0 0 0 0 0 0 0 0 0 0 0 0 0 0 0 0 0 0 0 0 0 0 0 0 0 0 0 0 "/>
</feComponentTransfer>
<feComposite operator="in" in2="shape" in="coloredNoise1" result="noise1Clipped" />
<feComponentTransfer in="noise1Clipped" result="color1">
<feFuncA type="table" tableValues="0 0.08" />
</feComponentTransfer>
<feMerge result="effect1_noise_147_698">
<feMergeNode in="shape" />
<feMergeNode in="color1" />
</feMerge>
</filter>
<filter id="filter8_n_147_698" x="565.473" y="305.964" width="129.31" height="258.746" filterUnits="userSpaceOnUse" color-interpolation-filters="sRGB">
<feFlood flood-opacity="0" result="BackgroundImageFix"/>
<feBlend mode="normal" in="SourceGraphic" in2="BackgroundImageFix" result="shape"/>
<feTurbulence type="fractalNoise" baseFrequency="0.18418078124523163 0.18418078124523163" stitchTiles="stitch" numOctaves="3" result="noise" seed="264" />
<feComponentTransfer in="noise" result="coloredNoise1">
<feFuncR type="linear" slope="2" intercept="-0.5" />
<feFuncG type="linear" slope="2" intercept="-0.5" />
<feFuncB type="linear" slope="2" intercept="-0.5" />
<feFuncA type="discrete" tableValues="0 0 0 0 0 0 0 0 0 0 0 0 0 0 0 0 1 1 1 1 1 1 1 1 1 1 1 1 1 1 1 1 1 0 0 0 0 0 0 0 0 0 0 0 0 0 0 0 0 0 0 0 0 0 0 0 0 0 0 0 0 0 0 0 0 0 0 0 0 0 0 0 0 0 0 0 0 0 0 0 0 0 0 0 0 0 0 0 0 0 0 0 0 0 0 0 0 0 0 0 "/>
</feComponentTransfer>
<feComposite operator="in" in2="shape" in="coloredNoise1" result="noise1Clipped" />
<feComponentTransfer in="noise1Clipped" result="color1">
<feFuncA type="table" tableValues="0 0.08" />
</feComponentTransfer>
<feMerge result="effect1_noise_147_698">
<feMergeNode in="shape" />
<feMergeNode in="color1" />
</feMerge>
</filter>
<filter id="filter9_n_147_698" x="420.74" y="400.987" width="180.517" height="177.742" filterUnits="userSpaceOnUse" color-interpolation-filters="sRGB">
<feFlood flood-opacity="0" result="BackgroundImageFix"/>
<feBlend mode="normal" in="SourceGraphic" in2="BackgroundImageFix" result="shape"/>
<feTurbulence type="fractalNoise" baseFrequency="0.18418078124523163 0.18418078124523163" stitchTiles="stitch" numOctaves="3" result="noise" seed="264" />
<feComponentTransfer in="noise" result="coloredNoise1">
<feFuncR type="linear" slope="2" intercept="-0.5" />
<feFuncG type="linear" slope="2" intercept="-0.5" />
<feFuncB type="linear" slope="2" intercept="-0.5" />
<feFuncA type="discrete" tableValues="0 0 0 0 0 0 0 0 0 0 0 0 0 0 0 0 1 1 1 1 1 1 1 1 1 1 1 1 1 1 1 1 1 0 0 0 0 0 0 0 0 0 0 0 0 0 0 0 0 0 0 0 0 0 0 0 0 0 0 0 0 0 0 0 0 0 0 0 0 0 0 0 0 0 0 0 0 0 0 0 0 0 0 0 0 0 0 0 0 0 0 0 0 0 0 0 0 0 0 0 "/>
</feComponentTransfer>
<feComposite operator="in" in2="shape" in="coloredNoise1" result="noise1Clipped" />
<feComponentTransfer in="noise1Clipped" result="color1">
<feFuncA type="table" tableValues="0 0.08" />
</feComponentTransfer>
<feMerge result="effect1_noise_147_698">
<feMergeNode in="shape" />
<feMergeNode in="color1" />
</feMerge>
</filter>
<filter id="filter10_n_147_698" x="127.05" y="325.136" width="312.393" height="341.862" filterUnits="userSpaceOnUse" color-interpolation-filters="sRGB">
<feFlood flood-opacity="0" result="BackgroundImageFix"/>
<feBlend mode="normal" in="SourceGraphic" in2="BackgroundImageFix" result="shape"/>
<feTurbulence type="fractalNoise" baseFrequency="0.18418078124523163 0.18418078124523163" stitchTiles="stitch" numOctaves="3" result="noise" seed="264" />
<feComponentTransfer in="noise" result="coloredNoise1">
<feFuncR type="linear" slope="2" intercept="-0.5" />
<feFuncG type="linear" slope="2" intercept="-0.5" />
<feFuncB type="linear" slope="2" intercept="-0.5" />
<feFuncA type="discrete" tableValues="0 0 0 0 0 0 0 0 0 0 0 0 0 0 0 0 1 1 1 1 1 1 1 1 1 1 1 1 1 1 1 1 1 0 0 0 0 0 0 0 0 0 0 0 0 0 0 0 0 0 0 0 0 0 0 0 0 0 0 0 0 0 0 0 0 0 0 0 0 0 0 0 0 0 0 0 0 0 0 0 0 0 0 0 0 0 0 0 0 0 0 0 0 0 0 0 0 0 0 0 "/>
</feComponentTransfer>
<feComposite operator="in" in2="shape" in="coloredNoise1" result="noise1Clipped" />
<feComponentTransfer in="noise1Clipped" result="color1">
<feFuncA type="table" tableValues="0 0.08" />
</feComponentTransfer>
<feMerge result="effect1_noise_147_698">
<feMergeNode in="shape" />
<feMergeNode in="color1" />
</feMerge>
</filter>
<filter id="filter11_n_147_698" x="47.4746" y="312.356" width="74.4648" height="102.908" filterUnits="userSpaceOnUse" color-interpolation-filters="sRGB">
<feFlood flood-opacity="0" result="BackgroundImageFix"/>
<feBlend mode="normal" in="SourceGraphic" in2="BackgroundImageFix" result="shape"/>
<feTurbulence type="fractalNoise" baseFrequency="0.18418078124523163 0.18418078124523163" stitchTiles="stitch" numOctaves="3" result="noise" seed="264" />
<feComponentTransfer in="noise" result="coloredNoise1">
<feFuncR type="linear" slope="2" intercept="-0.5" />
<feFuncG type="linear" slope="2" intercept="-0.5" />
<feFuncB type="linear" slope="2" intercept="-0.5" />
<feFuncA type="discrete" tableValues="0 0 0 0 0 0 0 0 0 0 0 0 0 0 0 0 1 1 1 1 1 1 1 1 1 1 1 1 1 1 1 1 1 0 0 0 0 0 0 0 0 0 0 0 0 0 0 0 0 0 0 0 0 0 0 0 0 0 0 0 0 0 0 0 0 0 0 0 0 0 0 0 0 0 0 0 0 0 0 0 0 0 0 0 0 0 0 0 0 0 0 0 0 0 0 0 0 0 0 0 "/>
</feComponentTransfer>
<feComposite operator="in" in2="shape" in="coloredNoise1" result="noise1Clipped" />
<feComponentTransfer in="noise1Clipped" result="color1">
<feFuncA type="table" tableValues="0 0.08" />
</feComponentTransfer>
<feMerge result="effect1_noise_147_698">
<feMergeNode in="shape" />
<feMergeNode in="color1" />
</feMerge>
</filter>
</defs>
</svg>
